<svg width="100" height="100" viewBox="0 0 100 100" fill="none" xmlns="http://www.w3.org/2000/svg">
<path d="M36.9998 19.1668C33.6664 4.75009 11.9581 4.70842 8.62478 19.1668C6.66645 27.6251 12.0414 34.7918 16.7081 39.2501C20.1248 42.4584 25.4998 42.4584 28.9164 39.2501C33.5831 34.7918 38.9164 27.6251 36.9998 19.1668ZM22.9581 25.8334C20.6664 25.8334 18.7914 23.9584 18.7914 21.6668C18.7914 19.3751 20.6248 17.5001 22.9164 17.5001H22.9581C25.2914 17.5001 27.1248 19.3751 27.1248 21.6668C27.1248 23.9584 25.2914 25.8334 22.9581 25.8334Z" fill="#FFC803"/>
<path d="M91.2926 69.1668C87.9593 54.7501 66.1676 54.7084 62.7926 69.1668C60.8343 77.6251 66.2093 84.7918 70.9176 89.2501C74.3343 92.4584 79.751 92.4584 83.1676 89.2501C87.8759 84.7918 93.251 77.6251 91.2926 69.1668ZM77.2093 75.8334C74.9176 75.8334 73.0426 73.9584 73.0426 71.6668C73.0426 69.3751 74.876 67.5001 77.1676 67.5001H77.2093C79.501 67.5001 81.376 69.3751 81.376 71.6668C81.376 73.9584 79.501 75.8334 77.2093 75.8334Z" fill="#FFC803"/>
<path d="M50.0006 82.2916H38.834C34.0006 82.2916 29.7923 79.3749 28.1256 74.8749C26.4173 70.3749 27.6673 65.4166 31.2923 62.2083L64.584 33.0833C66.584 31.3333 66.6256 28.9583 66.0423 27.3333C65.4173 25.7083 63.834 23.9583 61.1673 23.9583H50.0006C48.2923 23.9583 46.8756 22.5416 46.8756 20.8333C46.8756 19.1249 48.2923 17.7083 50.0006 17.7083H61.1673C66.0006 17.7083 70.209 20.6249 71.8756 25.1249C73.584 29.6249 72.334 34.5833 68.709 37.7916L35.4173 66.9166C33.4173 68.6666 33.3756 71.0416 33.959 72.6666C34.584 74.2916 36.1673 76.0416 38.834 76.0416H50.0006C51.709 76.0416 53.1256 77.4583 53.1256 79.1666C53.1256 80.8749 51.709 82.2916 50.0006 82.2916Z" fill="#FFC803"/>
</svg>
