<svg width="100" height="129" viewBox="0 0 100 129" fill="none" xmlns="http://www.w3.org/2000/svg">
<path fill-rule="evenodd" clip-rule="evenodd" d="M52.2034 91.5707C45.0247 91.5707 42.775 86.0313 53.3339 86.0313C86.2655 86.0313 93.4442 83.2955 93.4442 76.8742C93.4442 71.4139 76.1475 64.2691 98.7914 63.8056C100.332 70.6295 100.401 77.7036 98.9911 84.5559C97.5817 91.4082 94.7271 97.8811 90.6179 103.543C83.4618 98.5573 75.3109 91.5707 52.2034 91.5707ZM51.3329 29.1444C75.3674 29.1444 90.9005 41.7834 97.0279 58.04C69.7036 58.8879 83.6992 71.7983 83.6992 75.4385C83.6992 78.83 75.9666 78.2986 51.1181 78.2986C34.0362 78.2986 30.7691 98.8173 47.4553 98.8173C69.5566 98.8173 77.3345 104.809 80.9634 113.74C70.0314 122.614 54.2948 128.436 33.4823 128.436L36.659 114.576C-12.4388 102.559 -8.4933 51.3927 26.4845 34.5256L25.8627 0.52003L32.804 0L32.7474 6.9526L44.5386 6.19516V11.3163L59.5291 15.2053L41.8932 24.091L41.4184 19.3881L32.6231 20.3491L32.5213 32.0498C38.5717 30.0544 44.9057 29.0541 51.2764 29.0878L51.3329 29.1444ZM32.4422 41.7269L32.3631 51.2457L26.7106 50.7483L26.5636 42.1904C13.0993 44.7792 15.7786 57.0113 26.9027 57.0113C42.6167 57.0113 27.2532 67.9998 50.1911 67.9998C82.0487 67.9998 74.2482 47.8768 52.8591 47.8768C41.9497 47.8768 52.5539 41.8286 32.4422 41.7269Z" fill="#FFC803"/>
</svg>
