<svg width="1000" height="274" viewBox="0 0 1000 274" fill="none" xmlns="http://www.w3.org/2000/svg">
<g clip-path="url(#clip0_151_104)">
<path d="M339.956 114.524H374.891V98.5682H339.956V84.9036H399.641V68.8228H319.087V147.394H400.392V130.73H339.956V114.524Z" fill="white"/>
<path d="M985.976 82.4458L955.966 120.19L925.998 82.4458H911.766V147.394H929.838V109.9L953.587 139.77H958.053L981.802 109.9V147.394H999.833V82.4458H985.976Z" fill="white"/>
<path d="M827.456 125.814V82.4458H809.425V147.394H823.532L874.995 104.026V147.394H893.068V82.4458H878.919L827.456 125.814Z" fill="white"/>
<path d="M788.514 68.8228H764.014L741.6 93.819L718.102 68.8228H690.555L728.661 107.192L691.181 147.394H716.224L741.266 118.815L768.146 147.394H796.444L754.08 105.067L788.514 68.8228Z" fill="white"/>
<path d="M484.662 114.066C485.928 113.485 487.096 112.712 488.126 111.775C489.276 110.721 490.182 109.43 490.78 107.991C491.378 106.552 491.655 104.999 491.59 103.443V96.0271C491.724 94.1762 491.458 92.3181 490.81 90.5788C490.162 88.8394 489.147 87.2593 487.834 85.9453C484.215 83.3179 479.772 82.0759 475.312 82.4459H418.048V147.394H472.307C477.205 147.671 482.081 146.559 486.373 144.186C488.184 143.115 489.67 141.572 490.669 139.723C491.669 137.874 492.146 135.787 492.049 133.688V125.773C492.1 122.314 490.78 118.975 488.376 116.482C487.261 115.503 486.01 114.689 484.662 114.066ZM435.953 95.7772H468.175C471.806 95.7772 472.349 96.3604 472.349 96.3604C472.642 96.6636 472.871 97.0229 473.022 97.4167C473.173 97.8104 473.242 98.2306 473.225 98.6517V104.526C473.225 105.692 473.225 106.151 472.599 106.567C471.192 107.266 469.611 107.541 468.05 107.359H435.953V95.7772ZM473.81 129.397C473.869 129.956 473.815 130.52 473.65 131.057C473.485 131.594 473.213 132.092 472.85 132.522C471.599 133.281 470.131 133.604 468.676 133.438H435.953V120.69H468.3C471.389 120.69 472.474 121.232 472.85 121.648C473.207 122.073 473.476 122.564 473.641 123.093C473.806 123.622 473.863 124.179 473.81 124.731V129.397Z" fill="white"/>
<path d="M565.675 82.4458H508.243V147.394H526.274V123.481H565.675C569.907 123.821 574.129 122.72 577.653 120.357C579.114 119.065 580.252 117.451 580.977 115.643C581.701 113.835 581.993 111.882 581.827 109.942V96.0271C581.744 89.6947 579.949 82.4458 565.675 82.4458ZM564.589 105.984C564.589 107.484 564.589 108.025 563.713 108.567C562.63 109.205 561.377 109.496 560.123 109.4H526.274V96.527H559.205C560.781 96.3337 562.377 96.6553 563.755 97.4435C564.079 97.7756 564.322 98.1772 564.467 98.6177C564.612 99.0581 564.654 99.5257 564.589 99.9848V105.984Z" fill="white"/>
<path d="M676.406 86.1119C672.566 82.4458 665.387 82.4458 662.298 82.4458H613.715C609.039 81.8983 604.325 83.1005 600.484 85.8203C597.544 89.418 596.148 94.0307 596.603 98.6517V131.313C596.221 135.772 597.483 140.216 600.151 143.811C602.613 146.311 607.246 147.519 614.3 147.519H662.298C667.349 147.519 673.067 147.228 676.448 143.645C678.982 140.335 680.228 136.22 679.954 132.063V98.735C680.433 94.2292 679.163 89.7115 676.406 86.1119ZM661.923 132.73H614.675V97.4019H661.923V132.73Z" fill="white"/>
<path d="M41.4043 108.192L129.972 216.509V136.813C123.044 135.503 116.823 131.736 112.459 126.207C108.095 120.678 105.882 113.76 106.228 106.73C106.573 99.6994 109.455 93.0311 114.341 87.9554C119.226 82.8797 125.786 79.7391 132.81 79.1131C140.065 79.8092 146.797 83.1864 151.685 88.5818C156.573 93.9772 159.264 101.001 159.231 108.275H218.54L130.014 0.041748V79.1964C122.265 79.1964 114.834 82.2688 109.355 87.7378C103.876 93.2068 100.797 100.624 100.797 108.359L41.4043 108.192Z" fill="white"/>
<path d="M161.61 0L160.65 1.16649L249.176 108.192H218.54L145.332 197.637L160.65 216.342L259.986 108.192L161.61 0Z" fill="white"/>
<path d="M114.654 18.7471L99.3364 0L0 108.192L98.5433 216.342L99.3781 215.301L10.7684 108.192H41.4041L114.654 18.7471Z" fill="white"/>
<path d="M347.302 198.053L336.951 223.424H334.948L324.555 198.053V223.424H319.755V191.471H326.642L335.782 214.426L345.09 191.471H351.935V223.424H347.302V198.053Z" fill="white"/>
<path d="M364.999 191.471V216.134L382.404 191.471H387.37V223.424H382.362V198.428L364.623 223.424H359.99V191.471H364.999Z" fill="white"/>
<path d="M417.505 209.135H399.767V223.424H394.967V191.471H399.767V204.886H417.505V191.471H422.305V223.424H417.505V209.135Z" fill="white"/>
<path d="M430.151 191.471H451.646V195.637H434.951V205.011H451.313V209.177H434.951V219.133H451.646V223.299H430.151V191.471Z" fill="white"/>
<path d="M458.199 191.471H471.722C474.335 191.471 476.84 192.507 478.687 194.351C480.535 196.194 481.572 198.695 481.572 201.303C481.572 203.91 480.535 206.411 478.687 208.255C476.84 210.099 474.335 211.135 471.722 211.135H462.999V223.633H458.199V191.471ZM471.096 195.637H462.999V206.844H471.096C471.874 206.911 472.658 206.816 473.397 206.564C474.136 206.313 474.815 205.911 475.39 205.385C475.965 204.858 476.425 204.217 476.739 203.504C477.053 202.79 477.215 202.02 477.215 201.24C477.215 200.461 477.053 199.69 476.739 198.977C476.425 198.263 475.965 197.623 475.39 197.096C474.815 196.569 474.136 196.167 473.397 195.916C472.658 195.665 471.874 195.57 471.096 195.637Z" fill="white"/>
<path d="M505.531 216.842H489.837L487.249 223.424H481.865L494.387 191.471H500.397L512.918 223.424H507.618L505.531 216.842ZM491.215 212.676H504.153L497.642 195.762L491.215 212.676Z" fill="white"/>
<path d="M525.189 201.136L526.024 191.471H546.893V223.424H542.051V195.679H530.323L529.822 201.261C528.069 221.841 523.395 224.008 517.301 224.008V219.3C520.932 219.3 523.854 216.884 525.189 201.136Z" fill="white"/>
<path d="M559.33 203.802H568.012C569.356 203.715 570.705 203.904 571.973 204.357C573.242 204.811 574.404 205.519 575.387 206.439C576.371 207.358 577.154 208.469 577.69 209.704C578.226 210.938 578.503 212.268 578.503 213.613C578.503 214.958 578.226 216.289 577.69 217.523C577.154 218.757 576.371 219.869 575.387 220.788C574.404 221.708 573.242 222.416 571.973 222.87C570.705 223.323 569.356 223.512 568.012 223.424H554.53V191.471H559.33V203.802ZM559.33 219.217H567.386C568.163 219.284 568.947 219.189 569.686 218.937C570.425 218.686 571.104 218.285 571.679 217.758C572.255 217.231 572.714 216.59 573.028 215.877C573.342 215.164 573.505 214.393 573.505 213.613C573.505 212.834 573.342 212.063 573.028 211.35C572.714 210.636 572.255 209.996 571.679 209.469C571.104 208.942 570.425 208.54 569.686 208.289C568.947 208.038 568.163 207.943 567.386 208.01H559.33V219.217Z" fill="white"/>
<path d="M606.244 209.135H588.547V223.424H583.747V191.471H588.547V204.886H606.244V191.471H611.252V223.424H606.244V209.135Z" fill="white"/>
<path d="M633.416 190.929C636.739 190.821 640.018 191.706 642.834 193.471C645.65 195.235 647.874 197.798 649.221 200.832C650.569 203.866 650.978 207.232 650.396 210.5C649.814 213.767 648.269 216.787 645.957 219.172C643.645 221.557 640.673 223.198 637.42 223.886C634.168 224.575 630.783 224.278 627.701 223.034C624.619 221.79 621.978 219.656 620.119 216.905C618.259 214.154 617.265 210.912 617.263 207.593C617.129 205.416 617.451 203.235 618.208 201.189C618.965 199.142 620.14 197.276 621.66 195.708C623.179 194.14 625.01 192.906 627.034 192.083C629.058 191.26 631.231 190.867 633.416 190.929ZM633.416 195.095C631.851 195.088 630.302 195.408 628.869 196.036C627.436 196.663 626.151 197.584 625.096 198.739C624.042 199.893 623.242 201.255 622.748 202.737C622.255 204.22 622.078 205.789 622.23 207.343C622.432 209.506 623.259 211.563 624.611 213.265C625.963 214.966 627.781 216.239 629.845 216.929C631.908 217.618 634.127 217.694 636.233 217.148C638.339 216.602 640.24 215.456 641.706 213.851C643.172 212.246 644.139 210.251 644.49 208.108C644.84 205.964 644.559 203.765 643.681 201.778C642.803 199.791 641.365 198.102 639.543 196.915C637.72 195.729 635.591 195.097 633.416 195.095Z" fill="white"/>
<path d="M655.119 205.219H666.639V208.968H655.119V205.219Z" fill="white"/>
<path d="M681.414 210.385L671.814 223.424H665.971L678.283 207.052L666.722 191.471H672.524L681.414 203.719L690.22 191.471H696.064L684.586 207.01L696.773 223.424H691.013L681.414 210.385Z" fill="white"/>
<path d="M706.54 191.471V216.134L723.945 191.471H728.87V223.424H723.945V198.428L706.248 223.424H701.573V191.471H706.54Z" fill="white"/>
<path d="M764.306 198.053L753.955 223.424H751.951L741.559 198.053V223.424H736.759V191.471H743.604L753.162 214.426L762.469 191.471H769.314V223.424H764.515L764.306 198.053Z" fill="white"/>
<path d="M781.794 191.471V216.134L799.074 191.471H804.041V223.424H799.241V198.428L781.502 223.424H776.869V191.471H781.794Z" fill="white"/>
<path d="M821.904 207.468C824.39 207.508 826.858 207.055 829.167 206.135V191.471H833.967V223.424H829.167V209.885C826.39 210.99 823.432 211.569 820.444 211.593C813.432 211.593 810.385 208.385 810.385 200.345V191.471H815.185V200.428C815.185 205.719 817.021 207.468 821.904 207.468Z" fill="white"/>
<path d="M841.771 191.471H863.308V195.637H846.613V205.011H863.016V209.177H846.613V219.133H863.308V223.299H841.771V191.471Z" fill="white"/>
<path d="M868.442 207.468C868.35 205.28 868.709 203.097 869.497 201.052C870.285 199.008 871.485 197.148 873.022 195.585C874.56 194.023 876.403 192.793 878.437 191.97C880.47 191.148 882.651 190.751 884.845 190.804C887.337 190.758 889.8 191.356 891.993 192.538C894.187 193.72 896.038 195.448 897.366 197.553L893.193 199.72C892.249 198.285 890.96 197.11 889.443 196.302C887.926 195.494 886.23 195.079 884.511 195.095C881.658 195.648 879.086 197.175 877.237 199.414C875.388 201.652 874.376 204.463 874.376 207.364C874.376 210.266 875.388 213.077 877.237 215.315C879.086 217.554 881.658 219.08 884.511 219.633C886.235 219.649 887.935 219.229 889.452 218.414C890.97 217.598 892.257 216.412 893.193 214.967L897.366 217.134C896.035 219.236 894.183 220.962 891.99 222.144C889.797 223.326 887.337 223.924 884.845 223.883C882.673 223.934 880.514 223.545 878.497 222.737C876.481 221.93 874.65 220.722 873.116 219.187C871.582 217.652 870.377 215.822 869.573 213.807C868.77 211.793 868.385 209.636 868.442 207.468Z" fill="white"/>
<path d="M910.848 209.552L907.801 212.926V223.424H903.001V191.471H907.801V207.344L921.199 191.471H927.167L913.936 206.635L928.211 223.299H922.242L910.848 209.552Z" fill="white"/>
<path d="M955.215 216.842H939.48L936.809 223.424H931.55L944.071 191.471H950.081L962.603 223.424H957.678L955.215 216.842ZM940.899 212.676H953.796L947.327 195.762L940.899 212.676Z" fill="white"/>
<path d="M975.5 210.635C973.231 210.392 971.142 209.288 969.665 207.551C968.189 205.814 967.439 203.577 967.569 201.303C967.519 199.966 967.751 198.633 968.252 197.392C968.754 196.151 969.512 195.03 970.477 194.101C971.442 193.173 972.593 192.459 973.855 192.006C975.116 191.552 976.459 191.37 977.795 191.471H991.277V223.424H986.477V210.926H980.467L972.829 223.424H967.277L975.5 210.635ZM986.477 195.678H978.547C977.769 195.611 976.985 195.707 976.246 195.958C975.507 196.209 974.828 196.611 974.253 197.137C973.678 197.664 973.218 198.305 972.904 199.018C972.59 199.732 972.427 200.502 972.427 201.282C972.427 202.061 972.59 202.832 972.904 203.545C973.218 204.259 973.678 204.899 974.253 205.426C974.828 205.953 975.507 206.355 976.246 206.606C976.985 206.857 977.769 206.952 978.547 206.885H986.602L986.477 195.678Z" fill="white"/>
<path d="M327.435 259.544L324.388 262.918V273.417H319.755V241.463H324.555V257.336L337.953 241.463H344.13L330.899 256.628L345.173 273.292H338.996L327.435 259.544Z" fill="white"/>
<path d="M362.161 240.922C365.484 240.814 368.763 241.699 371.579 243.463C374.395 245.227 376.619 247.791 377.967 250.824C379.314 253.858 379.723 257.225 379.141 260.492C378.56 263.759 377.014 266.779 374.702 269.164C372.39 271.549 369.418 273.191 366.165 273.879C362.913 274.567 359.529 274.27 356.446 273.026C353.364 271.783 350.724 269.649 348.864 266.898C347.004 264.147 346.01 260.904 346.008 257.586C345.874 255.409 346.196 253.227 346.953 251.181C347.71 249.135 348.885 247.268 350.405 245.7C351.925 244.133 353.755 242.898 355.779 242.075C357.803 241.253 359.976 240.86 362.161 240.922ZM362.161 245.088C359.307 245.641 356.736 247.167 354.886 249.406C353.037 251.644 352.026 254.455 352.026 257.357C352.026 260.258 353.037 263.069 354.886 265.307C356.736 267.546 359.307 269.073 362.161 269.626C365.014 269.073 367.586 267.546 369.435 265.307C371.284 263.069 372.296 260.258 372.296 257.357C372.296 254.455 371.284 251.644 369.435 249.406C367.586 247.167 365.014 245.641 362.161 245.088Z" fill="white"/>
<path d="M412.079 248.046L401.728 273.417H399.725L389.332 248.046V273.417H384.532V241.463H391.419L400.727 264.418L410.034 241.463H416.921V273.417H412.079V248.046Z" fill="white"/>
<path d="M447.264 245.671H429.525V273.417H424.726V241.463H452.064V273.417H447.264V245.671Z" fill="white"/>
<path d="M480.529 266.835H464.836L462.248 273.417H456.822L469.344 241.463H475.354L487.875 273.417H482.616L480.529 266.835ZM466.255 262.668H479.152L472.683 245.754L466.255 262.668Z" fill="white"/>
<path d="M515.881 259.127H498.143V273.417H493.343V241.463H498.143V254.878H515.881V241.463H520.681V273.417H515.881V259.127Z" fill="white"/>
<path d="M533.328 241.463V266.126L550.733 241.463H555.7V273.417H550.9V248.421L533.161 273.417H528.528V241.463H533.328Z" fill="white"/>
<path d="M570.057 260.627C567.788 260.385 565.699 259.281 564.223 257.544C562.747 255.806 561.996 253.569 562.127 251.295C562.076 249.958 562.309 248.625 562.81 247.384C563.311 246.143 564.069 245.022 565.035 244.094C566 243.166 567.151 242.451 568.412 241.998C569.673 241.545 571.016 241.363 572.353 241.463H585.834V273.417H581.034V260.919H575.024L567.428 273.417H561.835L570.057 260.627ZM581.034 245.671H572.979C572.201 245.604 571.418 245.699 570.679 245.95C569.939 246.201 569.261 246.603 568.685 247.13C568.11 247.657 567.651 248.297 567.336 249.011C567.022 249.724 566.86 250.495 566.86 251.274C566.86 252.054 567.022 252.824 567.336 253.538C567.651 254.251 568.11 254.892 568.685 255.419C569.261 255.945 569.939 256.347 570.679 256.598C571.418 256.849 572.201 256.945 572.979 256.878H581.034V245.671Z" fill="white"/>
</g>
<defs>
<clipPath id="clip0_151_104">
<rect width="1000" height="274" fill="white"/>
</clipPath>
</defs>
</svg>
