<svg width="206" height="185" viewBox="0 0 206 185" fill="none" xmlns="http://www.w3.org/2000/svg">
<rect x="1" y="94.813" width="99" height="90" rx="10" fill="#FFC803"/>
<path fill-rule="evenodd" clip-rule="evenodd" d="M67.4545 125.796H62.3274L66.363 112.624C66.363 112.624 73.3855 112.342 77.2401 112.342C80.5889 112.342 81.4993 114.344 81.6644 116.069L72.3526 116.163V119.712L84.0336 119.801C86.5412 120.088 88 121.16 88 124.934V143.343H80.9137C82.8037 135.435 78.3635 125.796 67.4545 125.796ZM77.6447 109.801C73.2843 109.801 63.7276 109.974 63.7276 109.974L57.5145 129.675L50.2418 128.687L53.2552 117.344L49.3846 117.25L46.5469 128.164L41.5423 127.479L44.2895 117.13L40.4189 117.041L37.8367 126.972L32.2837 126.214L34.7541 116.915L30.8835 116.826L28.5729 125.713L20.6134 124.615L13 116.251L14.6877 112.885L51.6793 113.309L59.3033 105.813H81.5952C81.5952 105.813 82.0104 109.801 77.6447 109.801ZM29.5791 150.813C13.7134 150.813 14.4322 128.561 29.3289 128.561C44.2256 128.561 44.0712 150.813 29.5791 150.813ZM29.2224 136.146C24.484 136.146 24.2551 143.228 29.3023 143.228C33.9129 143.228 33.9448 136.146 29.2224 136.146ZM53.3457 140.003H43.4856L40.6585 130.595L54.549 132.565C53.7463 134.966 53.3401 137.477 53.3457 140.003ZM67.4172 128.561C82.25 128.561 82.1595 150.813 67.6674 150.813C51.8017 150.813 52.5205 128.561 67.4172 128.561ZM67.3906 143.228C72.0012 143.228 72.0331 136.146 67.3107 136.146C62.5883 136.146 62.3434 143.228 67.3906 143.228Z" fill="#444863"/>
<path d="M1 157.813H100V174.813C100 180.336 95.5229 184.813 90 184.813H11C5.47715 184.813 1 180.336 1 174.813V157.813Z" fill="#444863"/>
<path d="M37.3013 174.813H33.7373V173.337H34.1873V170.169C34.1873 169.401 34.0493 168.861 33.7733 168.549C33.5093 168.225 33.1313 168.063 32.6393 168.063C32.0033 168.063 31.5353 168.279 31.2353 168.711C30.9473 169.143 30.7973 169.635 30.7853 170.187V173.337H31.9913V174.813H28.4273V173.337H28.8593V170.169C28.8593 169.401 28.7213 168.861 28.4453 168.549C28.1813 168.225 27.8093 168.063 27.3293 168.063C26.7053 168.063 26.2433 168.279 25.9433 168.711C25.6433 169.131 25.4873 169.617 25.4753 170.169V173.337H26.9873V174.813H22.3433V173.337H23.5493V168.225H22.3613V166.731H25.4753V168.063C25.7273 167.619 26.0633 167.259 26.4833 166.983C26.9033 166.707 27.4133 166.569 28.0133 166.569C28.6133 166.569 29.1533 166.719 29.6333 167.019C30.1133 167.307 30.4493 167.763 30.6413 168.387C30.8813 167.835 31.2293 167.397 31.6853 167.073C32.1413 166.737 32.6993 166.569 33.3593 166.569C34.0913 166.569 34.7333 166.803 35.2853 167.271C35.8373 167.739 36.1133 168.471 36.1133 169.467V173.337H37.3013V174.813ZM39.193 165.057V162.933H41.155V165.057H39.193ZM42.415 174.813H38.095V173.337H39.301V168.225H38.023V166.731H41.209V173.337H42.415V174.813ZM53.1068 174.813H48.7868V173.337H49.9748V170.169C49.9748 169.401 49.8368 168.861 49.5608 168.549C49.2848 168.225 48.9008 168.063 48.4088 168.063C47.7968 168.063 47.3108 168.261 46.9508 168.657C46.6028 169.053 46.4228 169.539 46.4108 170.115V173.337H47.6168V174.813H43.2788V173.337H44.4848V168.225H43.2248V166.731H46.4108V168.045C46.9748 167.061 47.8688 166.569 49.0928 166.569C49.8608 166.569 50.5208 166.803 51.0728 167.271C51.6248 167.739 51.9008 168.471 51.9008 169.467V173.337H53.1068V174.813ZM54.9957 165.057V162.933H56.9577V165.057H54.9957ZM58.2177 174.813H53.8977V173.337H55.1037V168.225H53.8257V166.731H57.0117V173.337H58.2177V174.813ZM68.9096 174.813H64.5896V173.337H65.7776V170.169C65.7776 169.401 65.6396 168.861 65.3636 168.549C65.0876 168.225 64.7036 168.063 64.2116 168.063C63.5996 168.063 63.1136 168.261 62.7536 168.657C62.4056 169.053 62.2256 169.539 62.2136 170.115V173.337H63.4196V174.813H59.0816V173.337H60.2876V168.225H59.0276V166.731H62.2136V168.045C62.7776 167.061 63.6716 166.569 64.8956 166.569C65.6636 166.569 66.3236 166.803 66.8756 167.271C67.4276 167.739 67.7036 168.471 67.7036 169.467V173.337H68.9096V174.813ZM78.9344 168.225H77.7644V174.507C77.7644 175.791 77.4044 176.829 76.6844 177.621C75.9764 178.413 74.9144 178.809 73.4984 178.809C72.6584 178.809 71.8724 178.629 71.1404 178.269C70.4084 177.909 69.8924 177.291 69.5924 176.415L71.0864 175.605C71.5904 176.709 72.4064 177.261 73.5344 177.261C74.2064 177.261 74.7584 177.021 75.1904 176.541C75.6224 176.061 75.8384 175.377 75.8384 174.489V173.283C75.6104 173.715 75.2804 174.087 74.8484 174.399C74.4284 174.699 73.8464 174.849 73.1024 174.849C72.1544 174.849 71.3324 174.519 70.6364 173.859C69.9524 173.187 69.6104 172.215 69.6104 170.943C69.6104 169.791 69.9164 168.777 70.5284 167.901C71.1524 167.013 72.0524 166.569 73.2284 166.569C74.4524 166.569 75.3224 167.043 75.8384 167.991V166.731H78.9344V168.225ZM75.8384 170.961V170.313C75.8384 169.641 75.6464 169.107 75.2624 168.711C74.8784 168.315 74.3984 168.117 73.8224 168.117C73.1504 168.117 72.6344 168.363 72.2744 168.855C71.9144 169.335 71.7344 169.989 71.7344 170.817C71.7344 171.669 71.9144 172.299 72.2744 172.707C72.6344 173.103 73.0904 173.301 73.6424 173.301C74.3264 173.301 74.8604 173.061 75.2444 172.581C75.6404 172.101 75.8384 171.561 75.8384 170.961Z" fill="#F1F0F2"/>
<rect x="107" y="94.813" width="99" height="90" rx="10" fill="#FFC803"/>
<path fill-rule="evenodd" clip-rule="evenodd" d="M182.331 116.766L180.888 129.163L166.541 129.262L165.198 116.766C161.8 116.766 160.54 115.044 160.54 111.659H165.198C165.237 109.094 165.555 105.835 168.135 105.813C168.135 105.813 168.135 111.659 173.773 111.659C179.411 111.659 179.406 105.813 179.406 105.813C181.986 105.813 182.309 109.094 182.342 111.659H187C187 115.044 185.746 116.766 182.331 116.766ZM162.485 119.227C162.736 121.168 163.939 131.597 163.939 131.597L173.533 132.351L174.531 150.397L169.098 150.195L167.984 139.581H163.705L162.953 150.611L157.509 150.572L156.746 139.745L140.706 139.307L139.708 150.687L135.167 150.611L133 134.829L136.867 128.201V117.619C136.867 113.578 138.638 111.571 143.218 111.571C145.876 111.571 149.687 111.648 157.103 111.648C157.103 115.7 159.861 119.227 162.485 119.227ZM150.06 150.665L145.436 150.813L142.923 141.648L149.002 141.905L150.06 150.665Z" fill="#444863"/>
<path d="M107 157.813H206V174.813C206 180.336 201.523 184.813 196 184.813H117C111.477 184.813 107 180.336 107 174.813V157.813Z" fill="#444863"/>
<path d="M143.244 167.325C143.844 167.037 144.378 166.839 144.846 166.731C145.314 166.623 145.854 166.569 146.466 166.569C147.366 166.569 148.104 166.797 148.68 167.253C149.268 167.709 149.562 168.393 149.562 169.305V172.941C149.562 173.421 149.76 173.661 150.156 173.661C150.264 173.661 150.402 173.637 150.57 173.589L150.588 174.651C150.192 174.879 149.76 174.993 149.292 174.993C148.272 174.993 147.72 174.459 147.636 173.391V173.355C147.396 173.775 147.054 174.153 146.61 174.489C146.178 174.825 145.638 174.993 144.99 174.993C144.426 174.993 143.868 174.825 143.316 174.489C142.776 174.141 142.506 173.541 142.506 172.689C142.506 171.693 142.902 171.039 143.694 170.727C144.486 170.403 145.344 170.241 146.268 170.241C146.496 170.241 146.73 170.247 146.97 170.259C147.21 170.271 147.432 170.289 147.636 170.313V169.863C147.636 169.383 147.552 168.951 147.384 168.567C147.216 168.183 146.796 167.991 146.124 167.991C145.872 167.991 145.632 168.009 145.404 168.045C145.188 168.081 144.978 168.153 144.774 168.261L144.45 169.503L142.902 169.341L143.244 167.325ZM147.636 171.609V171.321C147.432 171.297 147.222 171.273 147.006 171.249C146.79 171.225 146.568 171.213 146.34 171.213C145.86 171.213 145.428 171.297 145.044 171.465C144.672 171.633 144.486 171.969 144.486 172.473C144.486 173.205 144.876 173.571 145.656 173.571C146.112 173.571 146.544 173.409 146.952 173.085C147.36 172.749 147.588 172.257 147.636 171.609ZM160.705 168.225H159.535V174.507C159.535 175.791 159.175 176.829 158.455 177.621C157.747 178.413 156.685 178.809 155.269 178.809C154.429 178.809 153.643 178.629 152.911 178.269C152.179 177.909 151.663 177.291 151.363 176.415L152.857 175.605C153.361 176.709 154.177 177.261 155.305 177.261C155.977 177.261 156.529 177.021 156.961 176.541C157.393 176.061 157.609 175.377 157.609 174.489V173.283C157.381 173.715 157.051 174.087 156.619 174.399C156.199 174.699 155.617 174.849 154.873 174.849C153.925 174.849 153.103 174.519 152.407 173.859C151.723 173.187 151.381 172.215 151.381 170.943C151.381 169.791 151.687 168.777 152.299 167.901C152.923 167.013 153.823 166.569 154.999 166.569C156.223 166.569 157.093 167.043 157.609 167.991V166.731H160.705V168.225ZM157.609 170.961V170.313C157.609 169.641 157.417 169.107 157.033 168.711C156.649 168.315 156.169 168.117 155.593 168.117C154.921 168.117 154.405 168.363 154.045 168.855C153.685 169.335 153.505 169.989 153.505 170.817C153.505 171.669 153.685 172.299 154.045 172.707C154.405 173.103 154.861 173.301 155.413 173.301C156.097 173.301 156.631 173.061 157.015 172.581C157.411 172.101 157.609 171.561 157.609 170.961ZM166.403 166.605C166.943 166.605 167.447 166.755 167.915 167.055L168.257 169.575L166.763 169.755L166.457 168.369C166.217 168.249 166.013 168.189 165.845 168.189C165.509 168.189 165.215 168.327 164.963 168.603C164.723 168.879 164.603 169.263 164.603 169.755V173.337H166.205V174.813H161.471V173.337H162.677V168.225H161.417V166.731H164.459V168.243C164.603 167.787 164.831 167.403 165.143 167.091C165.467 166.767 165.887 166.605 166.403 166.605ZM177.61 170.781C177.61 172.041 177.208 173.061 176.404 173.841C175.612 174.609 174.58 174.993 173.308 174.993C172.072 174.993 171.076 174.621 170.32 173.877C169.576 173.133 169.204 172.125 169.204 170.853C169.204 169.677 169.558 168.669 170.266 167.829C170.974 166.977 172.024 166.551 173.416 166.551C174.82 166.551 175.87 166.971 176.566 167.811C177.262 168.651 177.61 169.641 177.61 170.781ZM175.612 170.727C175.612 169.863 175.402 169.203 174.982 168.747C174.574 168.291 174.04 168.063 173.38 168.063C172.696 168.063 172.162 168.309 171.778 168.801C171.394 169.281 171.202 169.929 171.202 170.745C171.202 171.513 171.382 172.161 171.742 172.689C172.114 173.217 172.66 173.481 173.38 173.481C174.076 173.481 174.622 173.229 175.018 172.725C175.414 172.209 175.612 171.543 175.612 170.727Z" fill="#F1F0F2"/>
<rect x="106" width="99" height="90" rx="10" fill="#FFC803"/>
<path d="M106 63H205V80C205 85.5228 200.523 90 195 90H116C110.477 90 106 85.5228 106 80V63Z" fill="#444863"/>
<path d="M122.897 70.244V68.12H124.859V70.244H122.897ZM126.119 80H121.799V78.524H123.005V73.412H121.727V71.918H124.913V78.524H126.119V80ZM136.811 80H132.491V78.524H133.679V75.356C133.679 74.588 133.541 74.048 133.265 73.736C132.989 73.412 132.605 73.25 132.113 73.25C131.501 73.25 131.015 73.448 130.655 73.844C130.307 74.24 130.127 74.726 130.115 75.302V78.524H131.321V80H126.983V78.524H128.189V73.412H126.929V71.918H130.115V73.232C130.679 72.248 131.573 71.756 132.797 71.756C133.565 71.756 134.225 71.99 134.777 72.458C135.329 72.926 135.605 73.658 135.605 74.654V78.524H136.811V80ZM146.872 80H143.758V78.452C143.518 78.92 143.17 79.328 142.714 79.676C142.27 80.012 141.682 80.18 140.95 80.18C139.894 80.18 139.054 79.82 138.43 79.1C137.818 78.38 137.512 77.39 137.512 76.13C137.512 74.978 137.8 73.964 138.376 73.088C138.964 72.2 139.882 71.756 141.13 71.756C141.766 71.756 142.3 71.888 142.732 72.152C143.176 72.404 143.518 72.746 143.758 73.178V69.092H142.012V67.616H145.684V78.524H146.872V80ZM143.758 76.112V75.5C143.746 74.828 143.542 74.294 143.146 73.898C142.75 73.502 142.264 73.304 141.688 73.304C141.04 73.304 140.512 73.55 140.104 74.042C139.708 74.522 139.51 75.182 139.51 76.022C139.51 76.874 139.708 77.522 140.104 77.966C140.512 78.41 140.998 78.632 141.562 78.632C142.222 78.632 142.75 78.362 143.146 77.822C143.542 77.282 143.746 76.712 143.758 76.112ZM157.213 80H154.027V78.65C153.499 79.658 152.611 80.162 151.363 80.162C150.595 80.162 149.929 79.934 149.365 79.478C148.813 79.01 148.537 78.272 148.537 77.264V73.394H147.331V71.918H150.463V76.562C150.463 77.33 150.601 77.876 150.877 78.2C151.153 78.512 151.543 78.668 152.047 78.668C152.647 78.668 153.121 78.458 153.469 78.038C153.829 77.618 154.015 77.12 154.027 76.544V73.394H152.587V71.918H155.953V78.524H157.213V80ZM165.064 77.588C165.064 78.428 164.716 79.07 164.02 79.514C163.336 79.958 162.46 80.18 161.392 80.18C160.816 80.18 160.234 80.114 159.646 79.982C159.07 79.85 158.548 79.652 158.08 79.388L158.368 77.3L159.88 77.444L159.862 78.488C160.09 78.584 160.33 78.65 160.582 78.686C160.846 78.722 161.08 78.74 161.284 78.74C161.776 78.74 162.202 78.656 162.562 78.488C162.934 78.308 163.12 78.044 163.12 77.696C163.12 77.36 162.952 77.12 162.616 76.976C162.292 76.832 161.884 76.724 161.392 76.652C160.9 76.568 160.408 76.46 159.916 76.328C159.424 76.184 159.01 75.956 158.674 75.644C158.35 75.32 158.188 74.84 158.188 74.204C158.188 73.268 158.542 72.626 159.25 72.278C159.97 71.93 160.726 71.756 161.518 71.756C162.562 71.756 163.546 72.002 164.47 72.494L164.668 74.492L163.156 74.672L162.994 73.466C162.526 73.286 162.052 73.196 161.572 73.196C161.2 73.196 160.882 73.274 160.618 73.43C160.366 73.574 160.24 73.808 160.24 74.132C160.24 74.468 160.402 74.702 160.726 74.834C161.05 74.966 161.452 75.074 161.932 75.158C162.412 75.23 162.892 75.338 163.372 75.482C163.852 75.614 164.254 75.842 164.578 76.166C164.902 76.478 165.064 76.952 165.064 77.588ZM172.645 77.624C172.417 79.328 171.469 80.18 169.801 80.18C168.937 80.18 168.247 79.952 167.731 79.496C167.227 79.04 166.975 78.404 166.975 77.588V73.34H165.787V71.918H166.975V69.416H168.901V71.918H171.907V73.34H168.901V77.282C168.901 78.134 169.273 78.56 170.017 78.56C170.221 78.56 170.449 78.488 170.701 78.344C170.953 78.188 171.127 77.798 171.223 77.174L172.645 77.624ZM178.04 71.792C178.58 71.792 179.084 71.942 179.552 72.242L179.894 74.762L178.4 74.942L178.094 73.556C177.854 73.436 177.65 73.376 177.482 73.376C177.146 73.376 176.852 73.514 176.6 73.79C176.36 74.066 176.24 74.45 176.24 74.942V78.524H177.842V80H173.108V78.524H174.314V73.412H173.054V71.918H176.096V73.43C176.24 72.974 176.468 72.59 176.78 72.278C177.104 71.954 177.524 71.792 178.04 71.792ZM189.643 73.394H188.797L186.097 80L185.197 82.322H186.385V83.834H182.065V82.322H183.433L184.225 80.072L181.363 73.394H180.481V71.918H184.459V73.394H183.433L185.305 77.768H185.413L186.925 73.394H186.007V71.918H189.643V73.394Z" fill="#F1F0F2"/>
<path fill-rule="evenodd" clip-rule="evenodd" d="M170 48.2857V56L167.103 55.9065L167.042 53.3444H143.075V56L140.178 55.9065L140 48.1922L143.089 48.2857V50.8945H145.541L145.602 47.5236C142.386 47.1169 140.914 45.0784 140.914 40.5901C140.914 38.4956 140.788 17.0312 140.788 17.0312H143.309L145.414 13.8379L149.961 14.5112L153.814 11L157.892 12.6831L164.487 12.987L166.503 16.8255L169.395 16.7974C169.395 16.7974 169.423 38.8416 169.423 40.693C169.423 44.6764 168.177 47.1823 164.459 47.6592L164.52 50.988H167.014L166.953 48.3138L170 48.2857ZM166.161 41.0483V20.0795H143.877C143.877 20.0795 143.839 34.6665 143.919 40.9595C143.947 43.0119 144.702 44.5642 147.336 44.5642H163.353C166.25 44.5642 166.17 43.1569 166.17 41.0483H166.161ZM156.908 33.3106L161.778 37.799C163.362 39.3652 160.841 41.7029 159.434 40.2629L154.953 35.4145L150.439 40.2862C148.869 41.8665 146.525 39.3512 147.969 37.9486L153.013 33.3153L151.011 31.1506L148.198 33.3948C147.065 32.7051 146.113 31.7544 145.423 30.6223L147.673 27.5226L147.111 26.9148L148.616 25.6665L149.084 26.134L151.972 24.0488C152.942 24.2639 154.569 26.0358 154.686 26.681L152.656 29.3927L154.958 31.5153L158.033 28.7101L156.111 26.7278L158.628 24.2312C158.628 24.2312 159.748 25.2083 160.784 26.1714L161.52 25.4982L162.767 26.999L162.214 27.5927C163.591 29.226 164.461 31.2245 164.717 33.3434L164.342 33.5865L159.711 30.3138L156.908 33.3106Z" fill="#444863"/>
<rect width="99" height="90" rx="10" fill="#FFC803"/>
<path d="M0 63H99V80C99 85.5228 94.5229 90 89 90H10C4.47715 90 0 85.5228 0 80V63Z" fill="#444863"/>
<path d="M15.5001 75.752C15.5001 76.904 15.1941 77.93 14.5821 78.83C13.9821 79.73 13.0521 80.18 11.7921 80.18C10.6281 80.18 9.78212 79.76 9.25412 78.92V82.322H10.8561V83.834H6.12212V82.322H7.32812L7.32812 73.394H6.06812V71.918H9.25412V73.52C9.48212 73.04 9.81212 72.626 10.2441 72.278C10.6881 71.93 11.2821 71.756 12.0261 71.756C13.0581 71.756 13.8921 72.11 14.5281 72.818C15.1761 73.514 15.5001 74.492 15.5001 75.752ZM13.5021 75.95C13.5021 75.086 13.3041 74.432 12.9081 73.988C12.5121 73.532 12.0081 73.304 11.3961 73.304C10.7481 73.304 10.2381 73.55 9.86612 74.042C9.49412 74.534 9.29612 75.11 9.27212 75.77L9.25412 76.4C9.25412 77.072 9.44612 77.612 9.83012 78.02C10.2261 78.428 10.7301 78.632 11.3421 78.632C12.0261 78.632 12.5541 78.392 12.9261 77.912C13.3101 77.432 13.5021 76.778 13.5021 75.95ZM21.4667 71.792C22.0067 71.792 22.5107 71.942 22.9787 72.242L23.3207 74.762L21.8267 74.942L21.5207 73.556C21.2807 73.436 21.0767 73.376 20.9087 73.376C20.5727 73.376 20.2787 73.514 20.0267 73.79C19.7867 74.066 19.6667 74.45 19.6667 74.942V78.524H21.2687V80H16.5347V78.524H17.7407V73.412H16.4807V71.918H19.5227V73.43C19.6667 72.974 19.8947 72.59 20.2067 72.278C20.5307 71.954 20.9507 71.792 21.4667 71.792ZM32.6738 75.968C32.6738 77.228 32.2718 78.248 31.4678 79.028C30.6758 79.796 29.6438 80.18 28.3718 80.18C27.1358 80.18 26.1398 79.808 25.3838 79.064C24.6398 78.32 24.2678 77.312 24.2678 76.04C24.2678 74.864 24.6218 73.856 25.3298 73.016C26.0378 72.164 27.0878 71.738 28.4798 71.738C29.8838 71.738 30.9338 72.158 31.6298 72.998C32.3258 73.838 32.6738 74.828 32.6738 75.968ZM30.6758 75.914C30.6758 75.05 30.4658 74.39 30.0458 73.934C29.6378 73.478 29.1038 73.25 28.4438 73.25C27.7598 73.25 27.2258 73.496 26.8418 73.988C26.4578 74.468 26.2658 75.116 26.2658 75.932C26.2658 76.7 26.4458 77.348 26.8058 77.876C27.1778 78.404 27.7238 78.668 28.4438 78.668C29.1398 78.668 29.6858 78.416 30.0818 77.912C30.4778 77.396 30.6758 76.73 30.6758 75.914ZM42.9978 80H39.8838V78.452C39.6438 78.92 39.2958 79.328 38.8398 79.676C38.3958 80.012 37.8078 80.18 37.0758 80.18C36.0198 80.18 35.1798 79.82 34.5558 79.1C33.9438 78.38 33.6378 77.39 33.6378 76.13C33.6378 74.978 33.9258 73.964 34.5018 73.088C35.0898 72.2 36.0078 71.756 37.2558 71.756C37.8918 71.756 38.4258 71.888 38.8578 72.152C39.3018 72.404 39.6438 72.746 39.8838 73.178V69.092H38.1378V67.616H41.8098V78.524H42.9978V80ZM39.8838 76.112V75.5C39.8718 74.828 39.6678 74.294 39.2718 73.898C38.8758 73.502 38.3898 73.304 37.8138 73.304C37.1658 73.304 36.6378 73.55 36.2298 74.042C35.8338 74.522 35.6358 75.182 35.6358 76.022C35.6358 76.874 35.8338 77.522 36.2298 77.966C36.6378 78.41 37.1238 78.632 37.6878 78.632C38.3478 78.632 38.8758 78.362 39.2718 77.822C39.6678 77.282 39.8718 76.712 39.8838 76.112ZM53.3392 80H50.1532V78.65C49.6252 79.658 48.7372 80.162 47.4892 80.162C46.7212 80.162 46.0552 79.934 45.4912 79.478C44.9392 79.01 44.6632 78.272 44.6632 77.264V73.394H43.4572V71.918H46.5892V76.562C46.5892 77.33 46.7272 77.876 47.0032 78.2C47.2792 78.512 47.6692 78.668 48.1732 78.668C48.7732 78.668 49.2472 78.458 49.5952 78.038C49.9552 77.618 50.1412 77.12 50.1532 76.544V73.394H48.7132V71.918H52.0792V78.524H53.3392V80ZM61.6223 77.102C61.5383 77.822 61.2203 78.518 60.6683 79.19C60.1163 79.85 59.2283 80.18 58.0043 80.18C56.8523 80.18 55.9103 79.832 55.1783 79.136C54.4583 78.44 54.0983 77.426 54.0983 76.094C54.0983 74.786 54.4703 73.736 55.2143 72.944C55.9703 72.152 56.9543 71.756 58.1663 71.756C58.6463 71.756 59.1263 71.816 59.6063 71.936C60.0863 72.056 60.5603 72.254 61.0283 72.53L61.3523 74.798L59.8043 74.96L59.5343 73.628C59.0903 73.412 58.6223 73.304 58.1303 73.304C56.7863 73.304 56.1143 74.204 56.1143 76.004C56.1143 77.756 56.8043 78.632 58.1843 78.632C59.1923 78.632 59.7983 78.02 60.0023 76.796L61.6223 77.102ZM69.0526 77.624C68.8246 79.328 67.8766 80.18 66.2086 80.18C65.3446 80.18 64.6546 79.952 64.1386 79.496C63.6346 79.04 63.3826 78.404 63.3826 77.588V73.34H62.1946V71.918H63.3826V69.416H65.3086V71.918H68.3146V73.34H65.3086V77.282C65.3086 78.134 65.6806 78.56 66.4246 78.56C66.6286 78.56 66.8566 78.488 67.1086 78.344C67.3606 78.188 67.5346 77.798 67.6306 77.174L69.0526 77.624ZM70.6852 70.244V68.12H72.6472V70.244H70.6852ZM73.9072 80H69.5872V78.524H70.7932V73.412H69.5152V71.918H72.7012V78.524H73.9072V80ZM83.123 75.968C83.123 77.228 82.721 78.248 81.917 79.028C81.125 79.796 80.093 80.18 78.821 80.18C77.585 80.18 76.589 79.808 75.833 79.064C75.089 78.32 74.717 77.312 74.717 76.04C74.717 74.864 75.071 73.856 75.779 73.016C76.487 72.164 77.537 71.738 78.929 71.738C80.333 71.738 81.383 72.158 82.079 72.998C82.775 73.838 83.123 74.828 83.123 75.968ZM81.125 75.914C81.125 75.05 80.915 74.39 80.495 73.934C80.087 73.478 79.553 73.25 78.893 73.25C78.209 73.25 77.675 73.496 77.291 73.988C76.907 74.468 76.715 75.116 76.715 75.932C76.715 76.7 76.895 77.348 77.255 77.876C77.627 78.404 78.173 78.668 78.893 78.668C79.589 78.668 80.135 78.416 80.531 77.912C80.927 77.396 81.125 76.73 81.125 75.914ZM93.933 80H89.613V78.524H90.801V75.356C90.801 74.588 90.663 74.048 90.387 73.736C90.111 73.412 89.727 73.25 89.235 73.25C88.623 73.25 88.137 73.448 87.777 73.844C87.429 74.24 87.249 74.726 87.237 75.302V78.524H88.443V80H84.105V78.524H85.311V73.412H84.051V71.918H87.237V73.232C87.801 72.248 88.695 71.756 89.919 71.756C90.687 71.756 91.347 71.99 91.899 72.458C92.451 72.926 92.727 73.658 92.727 74.654V78.524H93.933V80Z" fill="#F1F0F2"/>
<path fill-rule="evenodd" clip-rule="evenodd" d="M77.4499 26.858C73.4193 26.858 65.7762 26.7804 62.8332 26.7804C59.5408 26.7804 57.4196 27.9546 56.5633 30.0313L55.1361 30.0701C55.1361 26.1302 58.4384 23.7332 61.1402 23.9661C62.0015 24.0389 65.6532 23.4809 67.046 22.8162C69.9317 21.5194 73.197 21.3005 76.2343 22.1999C79.5071 23.1364 79.827 26.858 77.4499 26.858ZM72.0265 19.1237C65.3481 19.1237 51.0464 19.0072 46.1643 19.0072C41.2822 19.0072 38.605 20.1814 36.5281 23.9758L35.0517 24.0292C35.0397 22.813 35.2856 21.6077 35.7734 20.4906C36.2613 19.3735 36.9804 18.3691 37.8848 17.5419C38.7892 16.7147 39.8588 16.0828 41.0252 15.6867C42.1916 15.2907 43.4291 15.1392 44.6583 15.242C46.0855 15.3487 52.2078 14.6306 54.4077 13.5243C59.4719 10.9866 64.7427 10.2879 69.9841 11.7678C75.3927 13.3011 75.9636 19.1237 72.0265 19.1237ZM54.5652 52.0552L56.3418 51.3808C54.6668 48.2661 53.493 44.9137 52.8624 41.4436C53.6499 38.3442 54.0547 35.1624 54.0681 31.9673L65.476 32.1371C65.4927 39.0056 67.2829 45.7567 70.678 51.7544L74.4872 51.7156L74.5955 55.9127L22 56L22.2953 52.2347L26.2324 52.1959C30.3222 44.578 33.2455 35.4366 33.2455 26.0817L47.4586 26.2952C47.4586 34.9368 49.8849 44.4664 54.5652 52.0552ZM42.9752 34.7913H36.8775L37.4189 43.3213L40.1847 43.7774L40.6769 50.0852L44.993 41.1767L41.9958 40.2354L42.9752 34.7913Z" fill="#444863"/>
</svg>
