<svg width="14" height="20" viewBox="0 0 14 20" fill="none" xmlns="http://www.w3.org/2000/svg">
<path fill-rule="evenodd" clip-rule="evenodd" d="M13.3333 16.5714V20L12.0458 19.9584L12.0187 18.8197H1.36667V20L0.0791669 19.9584L0 16.5299L1.37292 16.5714V17.7309H2.4625L2.48958 16.2327C1.06042 16.0519 0.40625 15.146 0.40625 13.1512C0.40625 12.2203 0.35 2.68052 0.35 2.68052H1.47083L2.40625 1.2613L4.42708 1.56052L6.13958 0L7.95208 0.748052L10.8833 0.883117L11.7792 2.58909L13.0646 2.57662C13.0646 2.57662 13.0771 12.374 13.0771 13.1969C13.0771 14.9673 12.5229 16.081 10.8708 16.293L10.8979 17.7725H12.0062L11.9792 16.5839L13.3333 16.5714ZM11.6271 13.3548V4.03532H1.72292C1.72292 4.03532 1.70625 10.5184 1.74167 13.3153C1.75417 14.2275 2.08958 14.9174 3.26042 14.9174H10.3792C11.6667 14.9174 11.6312 14.2919 11.6312 13.3548H11.6271ZM7.51458 9.91584L9.67916 11.9106C10.3833 12.6068 9.2625 13.6457 8.6375 13.0057L6.64583 10.8509L4.63958 13.0161C3.94167 13.7184 2.9 12.6005 3.54167 11.9771L5.78333 9.91792L4.89375 8.95584L3.64375 9.95325C3.13984 9.6467 2.71691 9.22416 2.41042 8.72104L3.41042 7.34338L3.16042 7.07325L3.82917 6.51844L4.0375 6.72623L5.32083 5.79948C5.75208 5.89506 6.475 6.6826 6.52708 6.96935L5.625 8.17454L6.64792 9.11792L8.01458 7.87117L7.16042 6.99013L8.27917 5.88052C8.27917 5.88052 8.77708 6.3148 9.2375 6.74286L9.56458 6.44364L10.1187 7.11065L9.87292 7.37454C10.4851 8.10046 10.8717 8.98866 10.9854 9.93039L10.8187 10.0384L8.76042 8.5839L7.51458 9.91584Z" fill="#FFC803"/>
</svg>
