<svg width="250" height="250" viewBox="0 0 250 250" fill="none" xmlns="http://www.w3.org/2000/svg">
<circle cx="125" cy="125" r="123.5" stroke="white" stroke-width="3"/>
<path fill-rule="evenodd" clip-rule="evenodd" d="M210.521 153.976L210.667 199.974H206.063L201.254 156.395L183.893 156.293L184.611 201.337C184.611 201.337 172.778 204.827 171.414 191.982C170.549 183.771 167.455 166.146 165.652 156.19H156.224C157.25 160.252 162.221 180.003 163.951 188.903C166.532 202.202 154.244 201.264 154.244 201.264C154.244 201.264 143.291 169.504 138.907 156.498C135.564 146.556 140.065 138.169 149.508 134.855L156.414 132.436L150.549 125.618C145.256 118.946 142.602 113.521 143.833 106.893C145.065 100.266 146.766 90.8666 146.766 90.8666C150.343 87.6959 154.603 85.3928 159.215 84.1363L165.564 92.9341L179.435 81.9662C184.538 82.5087 189.083 84.0337 192.133 86.805C192.133 86.805 199.465 106.072 202.676 115.412C204.729 121.278 197.808 129.987 193.878 134.357C194.582 138.334 194.582 142.404 193.878 146.381H204.655L212.529 119.401L208.306 119.254C208.658 115.324 206.532 109.137 200.887 94.679C200.887 94.679 212.911 94.5617 218.483 94.5617C225.33 94.5617 226.635 100.984 223.087 110.779C221.679 114.811 210.521 153.976 210.521 153.976ZM154.948 61.6873C154.948 42.9774 181.796 46.2912 179.714 62.9483C177.793 79.0336 154.948 80.6465 154.948 61.6873ZM130.285 151.659H74.8443L74.6683 199.93H64.6975L63.4218 128.301H57.7912L57.2341 151.762H44.448L44.272 200.018H34.5505L33.2895 130.017C23.7292 128.653 25.0635 118.624 25.0635 118.624L138.525 119.269L145.857 129.679C134.757 134.518 131.341 141.586 130.285 151.659ZM70.2841 82.5967C71.3409 82.0269 72.4388 81.5367 73.5686 81.1304L85.1816 99.8696L84.5658 81.1304L90.9442 81.2184L94.5659 98.6819L102.733 81.2184C107.108 82.5607 111.12 84.8825 114.464 88.0073L124.728 112.143L60.7385 111.967C54.624 93.7992 55.7238 90.8519 70.2841 82.5967ZM71.9557 63.0217C69.8882 46.3645 96.736 43.0507 96.736 61.7606C96.736 80.7052 73.9645 79.0336 71.9557 63.0217ZM104.478 190.472C104.478 190.472 110.593 196.132 108.085 200.179L86.6626 200.062L82.8942 157.656L102.953 157.847L104.478 190.472ZM131.927 190.941C131.927 190.941 136.326 194.739 135.49 200.106H113.994L109.786 157.847L130.563 158.052L131.927 190.941Z" fill="white"/>
</svg>
