<svg width="42" height="103" viewBox="0 0 42 103" fill="none" xmlns="http://www.w3.org/2000/svg">
<path fill-rule="evenodd" clip-rule="evenodd" d="M33.0429 57.9436L34.8929 102.484C34.8929 102.484 26.6829 105.114 26.1329 98.3436C25.6329 92.3436 21.8529 67.1136 21.8529 67.1136L18.9329 66.9436C18.9329 66.9436 16.1629 90.1536 14.9929 97.7836C13.8229 105.414 5.73292 102.194 5.73292 102.194L8.42292 57.7236C8.42292 57.7236 -1.32708 50.1335 0.152924 43.5235C1.46292 37.7035 3.24292 27.6036 3.24292 27.6036C10.1129 20.7536 30.4529 20.4836 38.2429 27.5336C38.2429 27.5336 39.7429 37.9235 40.9629 43.7035C42.1829 49.4835 33.0429 57.9436 33.0429 57.9436ZM12.2529 8.56355C12.2529 -4.06645 30.4629 -1.82645 29.0529 9.41355C27.7029 20.2236 12.2529 21.3536 12.2529 8.56355Z" fill="#FFC803"/>
</svg>
