<svg width="146" height="114" viewBox="0 0 146 114" fill="none" xmlns="http://www.w3.org/2000/svg">
<path fill-rule="evenodd" clip-rule="evenodd" d="M145.347 8L140.747 31.62L126.317 27.76L124.247 39.46C126.777 40.21 128.507 44.24 125.147 48.35C124.147 49.57 123.057 50.93 121.977 52.27L119.877 64.15L114.877 63.15L120.877 26.28L106.947 22.56L109.947 1.03L124.547 3.9L125.177 0L131.177 0.560001L130.377 5.05L145.347 8ZM86.0573 29.58C86.0573 18.3 102.327 20.3 101.057 30.34C99.8573 40 86.0573 41.01 86.0573 29.58ZM107.637 45.97L112.097 48.5L110.807 59.5L104.067 59.16L105.427 112.66C105.427 112.66 98.1873 115.44 97.1473 108.71C96.1073 101.98 93.6273 81.16 93.6273 81.16L91.0173 81.31C91.0173 81.31 87.6373 103.85 87.1973 109.22C86.6973 115.27 79.3673 112.91 79.3673 112.91L80.5473 73.08C80.5473 73.08 73.5473 66.08 73.4973 60.36C80.0573 55.55 85.3973 41.46 85.3973 41.46C92.0573 40.62 102.307 41.65 107.637 45.97ZM25.7173 23.31L25.6673 0.310001L82.4373 0.780003L81.9673 23.51L25.7173 23.31ZM28.8773 73.51L30.4373 112.87C30.4373 112.87 23.5373 115.17 22.6073 109.18C21.7473 103.65 20.0373 92.32 20.0373 92.32L15.0373 91.84C15.0373 91.84 13.7373 101.84 12.6873 108.67C11.6373 115.5 4.41729 112.62 4.41729 112.62L6.26729 73.62C6.26729 73.62 -1.00271 68.83 0.117289 62.88C1.17729 57.38 2.54729 49.3 2.54729 49.3C8.12729 43.91 17.2273 43.3 24.1373 44.52C26.2632 51.2542 30.0454 57.347 35.1373 62.24C36.3373 68.83 28.8773 73.51 28.8773 73.51ZM7.78729 32.24C7.78729 20.96 24.0573 22.96 22.7873 33C21.5473 42.67 7.78729 43.68 7.78729 32.24ZM46.7173 37.05C45.4673 27.05 61.7173 25.05 61.7173 36.29C61.7173 47.53 47.9373 46.73 46.7173 37.06V37.05ZM26.0173 30.1L32.4773 28.94C38.8273 54.72 68.7573 55.06 75.7973 28.24L81.9773 28.83C79.5873 41.36 72.9773 54.28 64.6073 60.08L66.2473 112.83C66.2473 112.83 58.9173 115.19 58.4173 109.14C57.9773 103.77 57.4173 95.89 57.4173 95.89L50.0973 96.94C50.0973 96.94 49.4873 101.82 48.4373 108.63C47.3873 115.44 40.1573 112.58 40.1573 112.58L43.5173 60.58C34.5473 54.39 28.6673 41.94 26.0173 30.11V30.1Z" fill="#FFC803"/>
</svg>
