<svg width="120" height="120" viewBox="0 0 120 120" fill="none" xmlns="http://www.w3.org/2000/svg">
<path d="M55 99.5V20.5C55 13 51.8 10 43.85 10H23.65C15.7 10 12.5 13 12.5 20.5V99.5C12.5 107 15.7 110 23.65 110H43.85C51.8 110 55 107 55 99.5Z" fill="#292D32"/>
<path d="M107.5 54.5V20.5C107.5 13 104.3 10 96.35 10H76.15C68.2 10 65 13 65 20.5V54.5C65 62 68.2 65 76.15 65H96.35C104.3 65 107.5 62 107.5 54.5Z" fill="#FFC803"/>
<path d="M107.5 99.5V85.5C107.5 78 104.3 75 96.35 75H76.15C68.2 75 65 78 65 85.5V99.5C65 107 68.2 110 76.15 110H96.35C104.3 110 107.5 107 107.5 99.5Z" fill="#292D32"/>
</svg>
