<svg width="328" height="250" viewBox="0 0 328 250" fill="none" xmlns="http://www.w3.org/2000/svg">
<path fill-rule="evenodd" clip-rule="evenodd" d="M303.595 171.788L303.835 247.061H296.3L288.43 175.747L260.02 175.579L261.195 249.292C261.195 249.292 241.831 255.003 239.6 233.983C238.184 220.546 233.121 191.704 230.17 175.411H214.741C216.42 182.058 224.555 214.379 227.386 228.944C231.609 250.708 211.501 249.172 211.501 249.172C211.501 249.172 193.577 197.199 186.402 175.915C180.932 159.646 188.298 145.921 203.751 140.498L215.053 136.539L205.455 125.381C196.792 114.463 192.449 105.585 194.465 94.7392C196.48 83.8934 199.264 68.5125 199.264 68.5125C205.117 63.3238 212.089 59.5549 219.636 57.4988L230.026 71.8959L252.725 53.9475C261.075 54.8353 268.514 57.3308 273.505 61.8659C273.505 61.8659 285.502 93.3955 290.757 108.68C294.117 118.278 282.791 132.532 276.36 139.682C277.513 146.19 277.513 152.85 276.36 159.358H293.997L306.882 115.207L299.972 114.967C300.547 108.536 297.068 98.4105 287.83 74.7513C287.83 74.7513 307.506 74.5593 316.624 74.5593C327.83 74.5593 329.966 85.0692 324.159 101.098C321.855 107.697 303.595 171.788 303.595 171.788ZM212.653 20.7621C212.653 -9.85569 256.588 -4.43277 253.181 22.8257C250.038 49.1484 212.653 51.7879 212.653 20.7621ZM172.293 167.996H81.5676L81.2796 246.989H64.9629L62.8753 129.772H53.6612L52.7494 168.164H31.8256L31.5377 247.133H15.6289L13.5653 132.58C-2.07957 130.348 0.103986 113.935 0.103986 113.935L185.779 114.991L197.776 132.028C179.612 139.946 174.021 151.512 172.293 167.996ZM74.1051 54.9793C75.8345 54.0468 77.6311 53.2447 79.48 52.5797L98.4842 83.2456L97.4764 52.5797L107.914 52.7237L113.841 81.302L127.206 52.7237C134.366 54.9204 140.931 58.7199 146.403 63.8335L163.199 103.33L58.4842 103.042C48.4782 73.3116 50.2779 68.4885 74.1051 54.9793ZM76.8405 22.9457C73.4572 -4.31279 117.392 -9.7357 117.392 20.8821C117.392 51.8839 80.1279 49.1484 76.8405 22.9457ZM130.062 231.512C130.062 231.512 140.068 240.774 135.965 247.396L100.908 247.205L94.7409 177.811L127.566 178.122L130.062 231.512ZM174.981 232.28C174.981 232.28 182.179 238.494 180.812 247.277H145.635L138.748 178.122L172.749 178.458L174.981 232.28Z" fill="black"/>
</svg>
