<svg width="120" height="120" viewBox="0 0 120 120" fill="none" xmlns="http://www.w3.org/2000/svg">
<path d="M106.5 20.5V54.5C106.5 58.1369 105.72 60.4239 104.221 61.8341C102.707 63.2589 100.238 64 96.35 64H76.15C72.2621 64 69.7934 63.2589 68.279 61.8341C66.7799 60.4239 66 58.1369 66 54.5V20.5C66 16.8631 66.7799 14.5761 68.279 13.1658C69.7934 11.7411 72.2621 11 76.15 11H96.35C100.238 11 102.707 11.7411 104.221 13.1658C105.72 14.5761 106.5 16.8631 106.5 20.5Z" fill="#292D32" stroke="#FFC803" stroke-width="2"/>
<path d="M54 65.5V99.5C54 103.137 53.2201 105.424 51.721 106.834C50.2066 108.259 47.7379 109 43.85 109H23.65C19.7621 109 17.2934 108.259 15.779 106.834C14.2799 105.424 13.5 103.137 13.5 99.5V65.5C13.5 61.8631 14.2799 59.5761 15.779 58.1658C17.2934 56.7411 19.7621 56 23.65 56H43.85C47.7379 56 50.2066 56.7411 51.721 58.1658C53.2201 59.5761 54 61.8631 54 65.5Z" fill="#292D32" stroke="#FFC803" stroke-width="2"/>
<path d="M107.5 99.5V85.5C107.5 78 104.3 75 96.35 75H76.15C68.2 75 65 78 65 85.5V99.5C65 107 68.2 110 76.15 110H96.35C104.3 110 107.5 107 107.5 99.5Z" fill="#FFC803"/>
<path d="M55 34.5V20.5C55 13 51.8 10 43.85 10H23.65C15.7 10 12.5 13 12.5 20.5V34.5C12.5 42 15.7 45 23.65 45H43.85C51.8 45 55 42 55 34.5Z" fill="#FFC803"/>
</svg>
