<svg width="210" height="200" viewBox="0 0 210 200" fill="none" xmlns="http://www.w3.org/2000/svg">
<path fill-rule="evenodd" clip-rule="evenodd" d="M204.975 199.483L4.4995 200L0 180.405L46.8173 164.341L26.9295 150.978C34.4437 147.873 42.6778 142.451 42.4978 131.113C36.7385 129.965 27.9869 126.816 24.9498 120.831C37.0759 116.579 31.4515 97.3888 19.6403 87.4899C19.6403 87.4899 43.4427 85.6226 50.5294 57.8832C44.1401 43.0573 42.3403 25.6892 53.8591 13.833C72.982 -5.87481 132.398 -8.28204 174.873 31.6961C184.3 40.5601 187.449 57.1407 174.153 63.9575L187.134 90.6845C176.426 91.9444 171.386 96.8039 171.386 102.878C178.968 106.68 186.977 136.13 181.6 151.158C173.411 147.108 168.439 148.908 168.439 148.908L161.847 163.374L209.812 178.987L204.975 199.483ZM107.651 195.253L140.272 174.353L134.603 152.508L117.707 166.749L94.9845 166.006L77.279 154.757L72.5995 175.928L107.651 195.253ZM103.151 28.0515L101.441 16.8027L94.6921 26.0492L83.4433 24.1819L90.1926 33.4059L84.8606 43.4623L95.727 40.0201L103.736 48.1642V36.623L113.882 31.5161L103.151 28.0515ZM142.522 63.7775L66.3452 63.1251C63.6843 72.4727 61.9956 82.07 61.3057 91.7644L69.4948 99.1436L71.7446 119.099L78.4938 120.201L81.1261 112.417L101.531 103.418L99.619 119.166C95.0672 119.813 90.7505 121.592 87.0654 124.341C83.5558 138.559 94.6696 138.919 106.121 138.919C117.572 138.919 128.123 138.492 125.176 123.531C121.264 120.598 116.562 118.905 111.678 118.671L109.428 102.923L128.821 110.977L132.51 119.976L138.832 120.471V100.943L147.831 92.9568C146.983 83.0634 145.174 73.276 142.432 63.7325L142.522 63.7775Z" fill="#FFC803"/>
</svg>
