<svg width="84" height="88" viewBox="0 0 84 88" fill="none" xmlns="http://www.w3.org/2000/svg">
<path fill-rule="evenodd" clip-rule="evenodd" d="M64.15 25.25L66.27 28.08L42.65 55L36.06 55.77L21.91 40.68L24.91 37.04L39.28 44.86L64.15 25.25ZM40.91 87.87C20.79 87.87 7.55 78.47 0.849998 65.87L6.37 62.66C12.05 73.58 23.37 81.58 40.68 81.58C88.87 81.58 89.18 6.19002 39.84 6.19002C27.04 6.19002 17.39 11.19 11.03 18.7L20.57 19.7L19.63 25.4L1.94 24.4L0 6.10002L5.88 5.24003L6.62 14.24C14.04 5.72003 25.19 2.13181e-05 39.92 2.13181e-05C97.47 -0.0499787 97.1 87.87 40.91 87.87Z" fill="#FFC803"/>
</svg>
