<svg width="120" height="120" viewBox="0 0 120 120" fill="none" xmlns="http://www.w3.org/2000/svg">
<path d="M54 20.5V99.5C54 103.137 53.2201 105.424 51.721 106.834C50.2066 108.259 47.7379 109 43.85 109H23.65C19.7621 109 17.2934 108.259 15.779 106.834C14.2799 105.424 13.5 103.137 13.5 99.5V20.5C13.5 16.8631 14.2799 14.5761 15.779 13.1658C17.2934 11.7411 19.7621 11 23.65 11H43.85C47.7379 11 50.2066 11.7411 51.721 13.1658C53.2201 14.5761 54 16.8631 54 20.5Z" fill="#292D32" stroke="#FFC803" stroke-width="2"/>
<path d="M107.5 54.5V20.5C107.5 13 104.3 10 96.35 10H76.15C68.2 10 65 13 65 20.5V54.5C65 62 68.2 65 76.15 65H96.35C104.3 65 107.5 62 107.5 54.5Z" fill="#FFC803"/>
<path d="M106.5 85.5V99.5C106.5 103.137 105.72 105.424 104.221 106.834C102.707 108.259 100.238 109 96.35 109H76.15C72.2621 109 69.7934 108.259 68.279 106.834C66.7799 105.424 66 103.137 66 99.5V85.5C66 81.8631 66.7799 79.5761 68.279 78.1658C69.7934 76.7411 72.2621 76 76.15 76H96.35C100.238 76 102.707 76.7411 104.221 78.1658C105.72 79.5761 106.5 81.8631 106.5 85.5Z" fill="#292D32" stroke="#FFC803" stroke-width="2"/>
</svg>
