<svg width="117" height="117" viewBox="0 0 117 117" fill="none" xmlns="http://www.w3.org/2000/svg">
<path d="M82.875 110.906H34.125C32.1263 110.906 30.4688 109.249 30.4688 107.25C30.4688 105.251 32.1263 103.594 34.125 103.594H82.875C84.8737 103.594 86.5312 105.251 86.5312 107.25C86.5312 109.249 84.8737 110.906 82.875 110.906Z" fill="#FFC803"/>
<path d="M87.75 9.75H29.25C18.4762 9.75 9.75 18.4762 9.75 29.25V73.125C9.75 83.8988 18.4762 92.625 29.25 92.625H87.75C98.5238 92.625 107.25 83.8988 107.25 73.125V29.25C107.25 18.4762 98.5238 9.75 87.75 9.75ZM48.7012 35.685C51.4312 35.685 53.625 37.8787 53.625 40.56C53.625 43.2412 51.4313 45.435 48.75 45.435C46.0687 45.435 43.875 43.2412 43.875 40.56C43.875 37.8787 46.02 35.685 48.7012 35.685ZM33.345 35.685C36.075 35.685 38.2687 37.8787 38.2687 40.56C38.2687 43.2412 36.075 45.435 33.3937 45.435C30.7125 45.435 28.5187 43.2412 28.5187 40.56C28.5187 37.8787 30.615 35.685 33.345 35.685ZM84.1425 72.4425H32.955C30.9075 72.4425 29.25 70.785 29.25 68.7862C29.25 66.7875 30.8587 65.13 32.8575 65.13H84.1913C86.19 65.13 87.8475 66.7875 87.8475 68.7862C87.8475 70.785 86.19 72.4425 84.1425 72.4425ZM84.1425 44.2162H66.2025C64.2037 44.2162 62.5462 42.5587 62.5462 40.56C62.5462 38.5612 64.2037 36.9038 66.2025 36.9038H84.1425C86.1413 36.9038 87.7988 38.5612 87.7988 40.56C87.7988 42.5587 86.19 44.2162 84.1425 44.2162Z" fill="#FFC803"/>
</svg>
