<svg width="109" height="200" viewBox="0 0 109 200" fill="none" xmlns="http://www.w3.org/2000/svg">
<path fill-rule="evenodd" clip-rule="evenodd" d="M98.2552 177.402C89.8116 167.656 82.2019 157.218 75.5066 146.198L78.3312 198.596C78.3312 198.596 62.8621 204.51 60.7768 190.217C60.2081 186.425 59.5446 180.738 59.5446 180.738L40.2651 187.695C40.2651 187.695 39.9239 189.42 39.6395 191.24C37.7438 203.98 23.033 199.07 23.033 199.07L29.1183 87.4686L12.7203 131.07C12.7203 131.07 -1.89573 130.653 1.70614 117.345C2.69192 113.686 4.90991 105.971 7.39331 97.2126L0 93.5538L19.488 56.4167C34.1798 43.1466 68.0185 43.5637 81.0421 56.5304C81.0421 56.5304 84.4354 73.9521 86.9188 84.9662C89.7245 97.5159 73.6488 111.885 73.6488 111.885L74.1037 120.056C82.7581 138.12 93.8364 154.92 107.032 169.989C111.43 175.051 102.331 182.065 98.2552 177.402ZM37.6301 29.8766C25.8387 28.9856 15.9051 26.9951 12.5876 23.7913L51.7721 0L90.6155 25.0993C86.824 27.6396 76.9663 29.3078 65.4592 30.0093C59.1086 41.1182 42.8054 42.066 37.6301 29.8766Z" fill="#FFC803"/>
</svg>
