<svg width="111" height="200" viewBox="0 0 111 200" fill="none" xmlns="http://www.w3.org/2000/svg">
<path fill-rule="evenodd" clip-rule="evenodd" d="M89.2811 162.802L71.0233 137.834L82.0642 185.69L68.6426 186.065L71.042 199.374L62.2505 199.918L57.7142 186.384L50.2161 186.609L42.3806 170.694L35.7823 187.021L26.016 187.302C25.7536 188.521 25.5286 189.627 25.3224 190.583C22.342 204.548 6.6897 198.849 6.6897 198.849L14.6752 123.662C14.6752 123.662 -3.1328 107.729 0.48503 95.5444C3.37179 85.8906 10.0638 64.6523 10.0638 64.6523C19.5489 55.1859 41.7808 52.4304 58.6327 56.948L25.1162 107.71L29.034 121.282L68.5302 60.8657C70.3831 61.9189 72.1122 63.1764 73.6851 64.6148C73.6851 64.6148 79.8335 86.303 82.6453 95.8818C84.7073 103.174 76.8156 112.453 71.6044 117.607L110.257 170.338L89.2811 162.802ZM57.7142 48.1752L29.2964 46.7506L28.8278 37.153C19.8863 32.8416 10.27 26.7682 10.27 20.4698C27.7781 17.6955 25.8098 5.02372 34.4701 0.0374913L43.4116 10.0287L52.653 0C61.5944 4.91125 60.1511 17.4705 76.8718 20.6197C76.8718 27.1431 66.9743 33.329 58.0141 37.6029L57.7142 48.1752Z" fill="#FFC803"/>
</svg>
