<svg width="249" height="250" viewBox="0 0 249 250" fill="none" xmlns="http://www.w3.org/2000/svg">
<path fill-rule="evenodd" clip-rule="evenodd" d="M128.608 250C-46.3525 250 -38.4191 0 125.764 0C289.436 0 288.412 250 128.608 250ZM125.594 17.8287C-15.2446 17.8287 -22.0122 232.2 127.982 232.2C265.01 232.114 265.892 17.8287 125.594 17.8287ZM215.704 137.682L185.222 143.369L182.378 121.474H215.676L215.704 137.682ZM114.845 150.99L74.6098 108.081L83.1403 97.7309L124.001 119.995L194.719 64.3483L200.747 72.3669L133.584 148.828L114.845 150.99ZM124.769 38.9559L143.223 37.4773L144.588 71.5992L125.736 70.6893L124.769 38.9559ZM102.704 38.9559H114.362L117.205 71.7414L99.9169 68.8979L102.704 38.9559ZM33.2654 127.076L66.0793 121.389L68.9228 143.653H36.1089L33.2654 127.076ZM138.02 213.859L121.471 218.466L115.784 186.05L137.991 184.258L138.02 213.859Z" fill="black"/>
</svg>
