<svg width="117" height="117" viewBox="0 0 117 117" fill="none" xmlns="http://www.w3.org/2000/svg">
<path d="M81.6564 17.355V9.75C81.6564 7.75125 79.9989 6.09375 78.0001 6.09375C76.0014 6.09375 74.3439 7.75125 74.3439 9.75V17.0625H42.6564V9.75C42.6564 7.75125 40.9989 6.09375 39.0001 6.09375C37.0014 6.09375 35.3439 7.75125 35.3439 9.75V17.355C22.1814 18.5737 15.7951 26.4225 14.8201 38.0737C14.7226 39.4875 15.8926 40.6575 17.2576 40.6575H99.7426C101.156 40.6575 102.326 39.4387 102.18 38.0737C101.205 26.4225 94.8189 18.5737 81.6564 17.355Z" fill="#444863"/>
<path d="M92.625 73.125C81.8512 73.125 73.125 81.8512 73.125 92.625C73.125 96.2812 74.1487 99.7425 75.9525 102.667C79.3162 108.322 85.5075 112.125 92.625 112.125C99.7425 112.125 105.934 108.322 109.298 102.667C111.101 99.7425 112.125 96.2812 112.125 92.625C112.125 81.8512 103.399 73.125 92.625 73.125ZM102.716 90.5287L92.3325 100.133C91.65 100.766 90.7238 101.107 89.8463 101.107C88.92 101.107 87.9937 100.766 87.2625 100.035L82.4362 95.2088C81.0225 93.795 81.0225 91.455 82.4362 90.0412C83.85 88.6275 86.19 88.6275 87.6037 90.0412L89.9438 92.3813L97.7437 85.1662C99.2062 83.8012 101.546 83.8988 102.911 85.3613C104.276 86.8238 104.179 89.115 102.716 90.5287Z" fill="#FFC803"/>
<path d="M97.5 47.97H19.5C16.8187 47.97 14.625 50.1637 14.625 52.845V82.875C14.625 97.5 21.9375 107.25 39 107.25H63.0338C66.3975 107.25 68.7375 103.984 67.665 100.815C66.69 97.9875 65.8613 94.8675 65.8613 92.625C65.8613 77.8537 77.9025 65.8125 92.6738 65.8125C94.0875 65.8125 95.5013 65.91 96.8663 66.1537C99.7913 66.5925 102.424 64.3012 102.424 61.3762V52.8937C102.375 50.1637 100.181 47.97 97.5 47.97ZM44.8988 88.7737C43.9725 89.6512 42.705 90.1875 41.4375 90.1875C40.17 90.1875 38.9025 89.6512 37.9762 88.7737C37.0987 87.8475 36.5625 86.58 36.5625 85.3125C36.5625 84.045 37.0987 82.7775 37.9762 81.8512C38.4637 81.4125 38.9512 81.0712 39.585 80.8275C41.3887 80.0475 43.5338 80.4862 44.8988 81.8512C45.7763 82.7775 46.3125 84.045 46.3125 85.3125C46.3125 86.58 45.7763 87.8475 44.8988 88.7737ZM44.8988 71.7112C44.655 71.9062 44.4113 72.1012 44.1675 72.2962C43.875 72.4912 43.5825 72.6375 43.29 72.735C42.9975 72.8812 42.705 72.9787 42.4125 73.0275C42.0712 73.0762 41.73 73.125 41.4375 73.125C40.17 73.125 38.9025 72.5887 37.9762 71.7112C37.0987 70.785 36.5625 69.5175 36.5625 68.25C36.5625 66.9825 37.0987 65.715 37.9762 64.7887C39.0975 63.6675 40.8037 63.1312 42.4125 63.4725C42.705 63.5212 42.9975 63.6187 43.29 63.765C43.5825 63.8625 43.875 64.0087 44.1675 64.2037C44.4113 64.3987 44.655 64.5937 44.8988 64.7887C45.7763 65.715 46.3125 66.9825 46.3125 68.25C46.3125 69.5175 45.7763 70.785 44.8988 71.7112ZM61.9613 71.7112C61.035 72.5887 59.7675 73.125 58.5 73.125C57.2325 73.125 55.965 72.5887 55.0387 71.7112C54.1612 70.785 53.625 69.5175 53.625 68.25C53.625 66.9825 54.1612 65.715 55.0387 64.7887C56.8912 62.985 60.1575 62.985 61.9613 64.7887C62.8388 65.715 63.375 66.9825 63.375 68.25C63.375 69.5175 62.8388 70.785 61.9613 71.7112Z" fill="#444863"/>
</svg>
