<svg width="26" height="20" viewBox="0 0 26 20" fill="none" xmlns="http://www.w3.org/2000/svg">
<path fill-rule="evenodd" clip-rule="evenodd" d="M24.6444 7.048C22.853 7.048 19.4561 7.0135 18.1481 7.0135C16.6848 7.0135 15.7421 7.53537 15.3615 8.45836L14.7271 8.47561C14.7271 6.72452 16.1948 5.65921 17.3957 5.76272C17.7784 5.79507 19.4014 5.54707 20.0204 5.25163C21.303 4.67531 22.7542 4.57798 24.1041 4.97775C25.5587 5.39396 25.7009 7.048 24.6444 7.048ZM22.234 3.61052C19.2658 3.61052 12.9095 3.55877 10.7397 3.55877C8.56987 3.55877 7.37998 4.08064 6.45693 5.76703L5.80074 5.79076C5.79543 5.25022 5.90469 4.71454 6.12152 4.21804C6.33835 3.72155 6.65798 3.27517 7.05992 2.90752C7.46186 2.53986 7.93726 2.25902 8.45566 2.083C8.97406 1.90698 9.52404 1.83964 10.0704 1.88532C10.7047 1.93276 13.4257 1.6136 14.4034 1.12191C16.6542 -0.00594203 18.9968 -0.316479 21.3263 0.341256C23.7301 1.02271 23.9838 3.61052 22.234 3.61052ZM14.4734 18.2468L15.263 17.947C14.5186 16.5627 13.9969 15.0727 13.7166 13.5305C14.0666 12.153 14.2466 10.7388 14.2525 9.31881L19.3227 9.39428C19.3301 12.4469 20.1257 15.4474 21.6347 18.1131L23.3276 18.0958L23.3758 19.9612L0 20L0.131239 18.3266L1.88109 18.3093C3.69874 14.9236 4.998 10.8607 4.998 6.70296L11.3149 6.79785C11.3149 10.6386 12.3933 14.874 14.4734 18.2468ZM9.32231 10.5739H6.61223L6.85284 14.365L8.0821 14.5678L8.30084 17.3712L10.2191 13.4119L8.88703 12.9935L9.32231 10.5739Z" fill="#FFC803"/>
</svg>
