<svg width="117" height="117" viewBox="0 0 117 117" fill="none" xmlns="http://www.w3.org/2000/svg">
<path d="M85.4591 37.8787C85.1178 37.83 84.7766 37.83 84.4353 37.8787C76.8791 37.635 70.8828 31.4437 70.8828 23.8387C70.8828 16.0875 77.1716 9.75 84.9716 9.75C92.7228 9.75 99.0603 16.0387 99.0603 23.8387C99.0116 31.4437 93.0153 37.635 85.4591 37.8787Z" fill="#444863"/>
<path d="M101.352 71.6625C95.892 75.3188 88.2383 76.6838 81.1695 75.7575C83.022 71.76 83.997 67.3238 84.0458 62.6438C84.0458 57.7688 82.9733 53.1375 80.9258 49.0913C88.1408 48.1163 95.7945 49.4813 101.303 53.1375C109.006 58.2075 109.006 66.5438 101.352 71.6625Z" fill="#444863"/>
<path d="M31.3943 37.8787C31.7355 37.83 32.0768 37.83 32.418 37.8787C39.9743 37.635 45.9705 31.4437 45.9705 23.8387C45.9705 16.0387 39.6818 9.75 31.8818 9.75C24.1305 9.75 17.8418 16.0387 17.8418 23.8387C17.8418 31.4437 23.838 37.635 31.3943 37.8787Z" fill="#444863"/>
<path d="M31.9322 62.6437C31.9322 67.3725 32.9559 71.8575 34.8084 75.9037C27.9347 76.635 20.7684 75.1725 15.5034 71.7112C7.80094 66.5925 7.80094 58.2562 15.5034 53.1375C20.7197 49.6275 28.0809 48.2137 35.0034 48.9937C33.0047 53.0887 31.9322 57.72 31.9322 62.6437Z" fill="#444863"/>
<path d="M59.0854 77.3662C58.6954 77.3175 58.2566 77.3175 57.8179 77.3662C48.8479 77.0737 41.6816 69.7125 41.6816 60.645C41.7304 51.3825 49.1891 43.875 58.5004 43.875C67.7629 43.875 75.2704 51.3825 75.2704 60.645C75.2216 69.7125 68.1041 77.0737 59.0854 77.3662Z" fill="#FFC803"/>
<path d="M43.2416 87.4576C35.8804 92.3814 35.8804 100.474 43.2416 105.349C51.6266 110.955 65.3741 110.955 73.7591 105.349C81.1204 100.425 81.1204 92.3326 73.7591 87.4576C65.4229 81.8514 51.6754 81.8514 43.2416 87.4576Z" fill="#FFC803"/>
</svg>
