<svg width="269" height="250" viewBox="0 0 269 250" fill="none" xmlns="http://www.w3.org/2000/svg">
<path fill-rule="evenodd" clip-rule="evenodd" d="M253.078 133.887L252.665 249.491H236.182L234.727 169.739H68.8488L68.5579 249.491H52.0743L50.0138 135.851H42.7416L41.9417 169.788H32.2454L31.9545 249.539H15.8103L13.7014 133.815C-2.0793 131.56 0.10236 114.98 0.10236 114.98H268.495C268.495 114.98 270.797 132.675 253.078 133.887ZM238.824 104.411L48.4624 103.999C38.2329 74.013 40.0994 69.0679 64.1703 55.5174C65.9221 54.585 67.7365 53.775 69.6003 53.0934L88.7988 84.0486L87.7565 53.0691L98.3012 53.2146L104.313 82.0852L117.791 53.2388C125.022 55.4493 131.654 59.2794 137.183 64.438L148.116 90.0361H157.303C157.303 90.0361 164.575 57.2385 165.811 52.3661C167.363 46.306 170.441 44.1243 175.895 44.1243C180.283 44.1243 236.764 44.1243 242.387 44.3183C248.835 44.4637 250.557 47.518 249.66 53.2873C249.126 57.9657 240.569 96.8235 238.897 104.411H238.824ZM205.324 67.9044C204.371 67.8611 203.419 68.0128 202.527 68.3503C201.634 68.6878 200.821 69.204 200.135 69.8672C199.449 70.5304 198.906 71.3267 198.539 72.2072C198.172 73.0877 197.989 74.0338 198 74.9877C198.012 75.9415 198.218 76.883 198.606 77.7543C198.995 78.6256 199.557 79.4085 200.258 80.0549C200.96 80.7012 201.786 81.1975 202.686 81.5133C203.586 81.8291 204.542 81.9577 205.493 81.8912C214.487 81.8912 214.559 67.9044 205.324 67.9044ZM67.0065 23.0592C63.5643 -4.47812 107.949 -9.95651 107.949 20.9745C107.949 52.2934 70.3032 49.53 67.0065 23.0592ZM121.96 233.953C121.96 233.953 134.08 243.31 129.935 250L94.5196 249.806L85.5991 179.508L118.421 179.799L121.96 233.953ZM164.09 180.163L167.338 234.728C167.338 234.728 176.598 241.007 175.241 249.879H139.704L130.008 179.775L164.09 180.163ZM216.062 249.588H199.991L198.754 180.429L216.329 180.575L216.062 249.588Z" fill="black"/>
</svg>
