<svg width="203" height="200" viewBox="0 0 203 200" fill="none" xmlns="http://www.w3.org/2000/svg">
<path fill-rule="evenodd" clip-rule="evenodd" d="M103.015 200C98.2203 200.013 93.4291 199.753 88.6643 199.221L96.7435 177.913C126.245 174.16 139.428 153.058 128.603 124.883L100.84 126.417C96.1256 103.53 76.4883 102.133 59.895 106.963L45.6591 127.309C53.8932 146.685 56.2799 168.047 52.5253 188.762C-28.862 147.565 -16.1366 6.96804 93.9742 0.262058C117.09 -1.13407 136.476 3.12297 152.177 11.248L135.766 25.4381C135.766 25.4381 99.6273 28.9856 84.865 29.5349C56.027 54.0014 79.8069 79.8412 99.0323 79.0859C97.247 92.0859 104.434 104.788 114.207 108.839L143.777 103.987C143.777 103.987 154.282 69.1071 178.817 41.6194C179.161 41.2303 180.671 39.7655 183.052 37.5455C225.874 95.3359 198.272 200 103.015 200Z" fill="#FFC803"/>
</svg>
