<svg width="24" height="20" viewBox="0 0 24 20" fill="none" xmlns="http://www.w3.org/2000/svg">
<path fill-rule="evenodd" clip-rule="evenodd" d="M21.9249 4.86815L21.2835 10.3779L14.9071 10.4217L14.3104 4.86815C12.7998 4.86815 12.2402 4.10257 12.2402 2.59813H14.3104C14.3277 1.45826 14.4688 0.00972172 15.6154 0C15.6154 0 15.6154 2.59813 18.1213 2.59813C20.6273 2.59813 20.6248 0 20.6248 0C21.7714 0 21.915 1.45826 21.9298 2.59813H24C24 4.10257 23.4428 4.86815 21.9249 4.86815ZM13.1044 5.96184C13.2158 6.82464 13.7507 11.4595 13.7507 11.4595L18.0149 11.7949L18.4581 19.8153L16.0437 19.7254L15.5485 15.0079H13.6467L13.3124 19.9101L10.8931 19.8931L10.5539 15.0808L3.42468 14.8864L2.98143 19.9441L0.963268 19.9101L0 12.8959L1.71853 9.95018V5.2473C1.71853 3.45121 2.50598 2.55924 4.54148 2.55924C5.72266 2.55924 7.41643 2.59327 10.7123 2.59327C10.7123 4.39422 11.9381 5.96184 13.1044 5.96184ZM7.58234 19.9344L5.52703 20L4.41024 15.9266L7.11184 16.0408L7.58234 19.9344Z" fill="#FFC803"/>
</svg>
