<svg width="34" height="20" viewBox="0 0 34 20" fill="none" xmlns="http://www.w3.org/2000/svg">
<path fill-rule="evenodd" clip-rule="evenodd" d="M24.202 8.8814H21.9233L23.7169 3.02706C23.7169 3.02706 26.838 2.90162 28.5511 2.90162C30.0395 2.90162 30.4441 3.79138 30.5175 4.55802L26.3789 4.59984V6.17726L31.5705 6.21675C32.685 6.34452 33.3333 6.82077 33.3333 8.49808V16.6802H30.1839C31.0239 13.1653 29.0504 8.8814 24.202 8.8814ZM28.731 1.77256C26.793 1.77256 22.5456 1.84923 22.5456 1.84923L19.7842 10.6052L16.5519 10.1661L17.8912 5.12487L16.1709 5.08305L14.9097 9.93379L12.6855 9.62946L13.9064 5.02962L12.1862 4.99013L11.0385 9.40411L8.57055 9.06725L9.66849 4.93437L7.94823 4.89488L6.92127 8.84423L3.38373 8.35637L0 4.63933L0.750101 3.14322L17.1908 3.3314L20.5793 0H30.4867C30.4867 0 30.6713 1.77256 28.731 1.77256ZM7.3685 20C0.317078 20 0.636521 10.1104 7.25728 10.1104C13.878 10.1104 13.8094 20 7.3685 20ZM7.20996 13.4812C5.104 13.4812 5.00225 16.6291 7.24545 16.6291C9.29462 16.6291 9.30882 13.4812 7.20996 13.4812ZM17.9314 15.1957H13.5491L12.2927 11.0141L18.4662 11.8899C18.1095 12.9568 17.9289 14.0728 17.9314 15.1957ZM24.1854 10.1104C30.7778 10.1104 30.7376 20 24.2966 20C17.2452 20 17.5647 10.1104 24.1854 10.1104ZM24.1736 16.6291C26.2228 16.6291 26.237 13.4812 24.1381 13.4812C22.0392 13.4812 21.9304 16.6291 24.1736 16.6291Z" fill="#FFC803"/>
</svg>
