<svg width="100" height="100" viewBox="0 0 100 100" fill="none" xmlns="http://www.w3.org/2000/svg">
<path d="M45.8327 8.29175C25.1244 8.29175 8.29102 25.1251 8.29102 45.8334C8.29102 66.5417 25.1244 83.3751 45.8327 83.3751C66.541 83.3751 83.3743 66.5417 83.3743 45.8334C83.3743 25.1251 66.541 8.29175 45.8327 8.29175ZM45.8327 55.2084H33.3327C31.6243 55.2084 30.2077 53.7917 30.2077 52.0834C30.2077 50.3751 31.6243 48.9584 33.3327 48.9584H45.8327C47.541 48.9584 48.9577 50.3751 48.9577 52.0834C48.9577 53.7917 47.541 55.2084 45.8327 55.2084ZM58.3327 42.7084H33.3327C31.6243 42.7084 30.2077 41.2917 30.2077 39.5834C30.2077 37.8751 31.6243 36.4584 33.3327 36.4584H58.3327C60.041 36.4584 61.4577 37.8751 61.4577 39.5834C61.4577 41.2917 60.041 42.7084 58.3327 42.7084Z" fill="#FFC803"/>
<path d="M91.6255 78.9583C90.2505 76.4167 87.3339 75 83.4172 75C80.4589 75 77.9172 76.2083 76.4172 78.2917C74.9172 80.375 74.5839 83.1667 75.5005 85.9583C77.2922 91.375 80.4172 92.5833 82.1255 92.7917C82.3755 92.8333 82.6255 92.8333 82.9172 92.8333C84.7505 92.8333 87.5839 92.0417 90.3339 87.9167C92.5422 84.7083 92.9589 81.5 91.6255 78.9583Z" fill="#FFC803"/>
</svg>
