<svg width="387" height="55" viewBox="0 0 387 55" fill="none" xmlns="http://www.w3.org/2000/svg">
<path fill-rule="evenodd" clip-rule="evenodd" d="M284.253 0C282.614 0 281.285 1.32893 281.285 2.96825V23.746C281.285 25.3853 282.614 26.7142 284.253 26.7142H307.703C309.342 26.7142 310.671 25.3853 310.671 23.746V2.96825C310.671 1.32893 309.342 0 307.703 0H284.253ZM299.823 12.2703H301.639C305.504 12.2703 307.078 15.6854 306.408 18.4874H308.919V11.9647C308.919 10.6276 308.402 10.248 307.513 10.1461L303.375 10.1146V8.85711L306.674 8.82378C306.615 8.21262 306.293 7.50331 305.106 7.50331C303.741 7.50331 301.252 7.60332 301.252 7.60332L299.823 12.2703ZM300.319 6.66436C300.319 6.66436 303.705 6.60325 305.25 6.60325C306.796 6.60325 306.649 5.19019 306.649 5.19019H298.751L296.05 7.84593L282.944 7.69592L282.346 8.8886L285.043 11.8518L287.863 12.2407L288.682 9.09231L290.053 9.1238L289.178 12.4185L291.145 12.687L292.06 9.16825L293.432 9.19973L292.458 12.8667L294.232 13.1093L295.237 9.24233L296.608 9.27566L295.541 13.2945L298.117 13.6445L300.319 6.66436ZM288.22 21.1339C282.598 21.1339 282.853 13.25 288.131 13.25C293.409 13.25 293.354 21.1339 288.22 21.1339ZM288.093 15.9372C286.415 15.9372 286.333 18.4467 288.122 18.4467C289.755 18.4467 289.767 15.9372 288.093 15.9372ZM293.147 17.304H296.64C296.638 16.4089 296.782 15.5191 297.067 14.6686L292.145 13.9704L293.147 17.304ZM301.626 13.25C306.881 13.25 306.849 21.1339 301.715 21.1339C296.093 21.1339 296.348 13.25 301.626 13.25ZM301.617 18.4467C303.25 18.4467 303.261 15.9372 301.588 15.9372C299.915 15.9372 299.828 18.4467 301.617 18.4467Z" fill="#FFC803"/>
<path fill-rule="evenodd" clip-rule="evenodd" d="M321.967 0C320.328 0 318.999 1.32893 318.999 2.96825V23.746C318.999 25.3853 320.328 26.7142 321.967 26.7142H345.416C347.056 26.7142 348.385 25.3853 348.385 23.746V2.96825C348.385 1.32893 347.056 0 345.416 0H321.967ZM342.529 13.4633L343.041 9.07101C344.251 9.07101 344.695 8.46069 344.695 7.26138H343.045C343.033 6.35269 342.918 5.19019 342.004 5.19019C342.004 5.19019 342.006 7.26138 340.009 7.26138C338.011 7.26138 338.011 5.19019 338.011 5.19019C337.097 5.19794 336.984 6.35269 336.971 7.26138H335.32C335.32 8.46069 335.766 9.07101 336.971 9.07101L337.446 13.4982L342.529 13.4633ZM336.524 14.3255C336.524 14.3255 336.098 10.6307 336.009 9.94288C335.079 9.94288 334.102 8.69319 334.102 7.2575C332.459 7.2575 331.315 7.24689 330.458 7.23894C329.945 7.23418 329.536 7.23038 329.183 7.23038C327.56 7.23038 326.932 7.94144 326.932 9.37326V13.1223L325.562 15.4706L326.33 21.0622L327.939 21.0894L328.293 17.0574L333.976 17.2124L334.246 21.0487L336.175 21.0622L336.441 17.1543H337.958L338.352 20.915L340.277 20.9867L339.924 14.5929L336.524 14.3255ZM329.969 21.1339L331.607 21.0816L331.232 17.9777L329.078 17.8867L329.969 21.1339Z" fill="#FFC803"/>
<path fill-rule="evenodd" clip-rule="evenodd" d="M359.681 0C358.042 0 356.713 1.32893 356.713 2.96825V23.746C356.713 25.3853 358.042 26.7142 359.681 26.7142H383.13C384.77 26.7142 386.099 25.3853 386.099 23.746V2.96825C386.099 1.32893 384.77 0 383.13 0H359.681ZM377.595 21.524V18.7908L376.515 18.8008L376.537 19.7483H375.653L375.632 18.5689C376.949 18.3999 377.391 17.512 377.391 16.1007C377.391 15.4447 377.381 7.63437 377.381 7.63437L376.356 7.64431L375.642 6.28433L373.305 6.17666L371.86 5.58032L370.495 6.82435L368.884 6.58581L368.138 7.7172H367.245C367.245 7.7172 367.29 15.3221 367.29 16.0643C367.29 17.6545 367.811 18.3767 368.95 18.5208L368.929 19.7152H368.06V18.7908L366.966 18.7577L367.029 21.4909L368.055 21.524V20.5832H376.547L376.569 21.4909L377.595 21.524ZM376.235 8.79723V16.2266H376.238L376.238 16.285C376.239 16.9996 376.239 17.4723 375.24 17.4723H369.565C368.632 17.4723 368.364 16.9223 368.354 16.1951C368.326 13.9655 368.339 8.79723 368.339 8.79723H376.235ZM374.682 15.0753L372.956 13.4851L373.95 12.4233L375.59 13.5828L375.723 13.4967C375.633 12.746 375.324 12.0379 374.836 11.4592L375.032 11.2488L374.591 10.7171L374.33 10.9556C373.963 10.6144 373.566 10.2682 373.566 10.2682L372.674 11.1528L373.355 11.8551L372.265 12.849L371.45 12.097L372.169 11.1362C372.128 10.9076 371.551 10.2798 371.208 10.2036L370.184 10.9424L370.018 10.7767L369.485 11.219L369.685 11.4344L368.887 12.5326C369.132 12.9337 369.469 13.2705 369.871 13.5149L370.867 12.7198L371.576 13.4868L369.789 15.1283C369.278 15.6253 370.108 16.5165 370.664 15.9566L372.264 14.2305L373.852 15.9483C374.35 16.4585 375.243 15.6303 374.682 15.0753Z" fill="#FFC803"/>
<path fill-rule="evenodd" clip-rule="evenodd" d="M246.539 0C244.899 0 243.57 1.32893 243.57 2.96825V23.746C243.57 25.3853 244.899 26.7142 246.539 26.7142H269.988C271.627 26.7142 272.956 25.3853 272.956 23.746V2.96825C272.956 1.32893 271.627 0 269.988 0H246.539ZM264.5 11.1835C265.552 11.1909 266.694 11.1989 267.465 11.1989C268.307 11.1989 268.193 9.88031 267.034 9.54852C265.958 9.22982 264.801 9.30741 263.778 9.76685C263.285 10.0024 261.991 10.2001 261.686 10.1743C260.729 10.0918 259.559 10.941 259.559 12.337L260.064 12.3232C260.368 11.5874 261.119 11.1714 262.286 11.1714C262.766 11.1714 263.6 11.1772 264.5 11.1835ZM260.307 8.43554C262.207 8.44659 264.267 8.45858 265.543 8.45858C266.938 8.45858 266.736 6.39562 264.819 5.85237C262.962 5.32803 261.095 5.57559 259.301 6.4747C258.521 6.86666 256.352 7.12109 255.846 7.08327C255.411 7.04686 254.972 7.10054 254.559 7.24086C254.146 7.38118 253.767 7.60506 253.446 7.89815C253.126 8.19125 252.871 8.54709 252.698 8.94289C252.525 9.33869 252.438 9.76572 252.443 10.1966L252.966 10.1777C253.702 8.83336 254.65 8.41732 256.38 8.41732C257.177 8.41732 258.683 8.42609 260.307 8.43554ZM259.986 19.8874L259.356 20.1264C257.698 17.4377 256.838 14.0613 256.838 10.9995L251.803 10.9238C251.803 14.2383 250.767 17.4772 249.318 20.1762L247.923 20.19L247.818 21.524L266.453 21.4931L266.415 20.006L265.065 20.0198C263.862 17.8948 263.228 15.5028 263.222 13.0693L259.18 13.0091C259.176 14.1412 259.032 15.2685 258.753 16.3666C258.976 17.5961 259.392 18.7839 259.986 19.8874ZM253.09 14.0097H255.25L254.903 15.9386L255.965 16.2721L254.436 19.4284L254.261 17.1935L253.281 17.0319L253.09 14.0097Z" fill="#FFC803"/>
<path fill-rule="evenodd" clip-rule="evenodd" d="M164.729 48.5585L169.189 47.3197L186.779 0L198.175 0L215.022 47.3197L218.986 48.5585V53.7612H197.184V48.5585L202.387 47.3197L200.157 39.6396H181.824L179.594 47.3197L184.549 48.5585V53.7612H164.729V48.5585ZM197.928 31.7116L191.487 10.1576L184.302 31.7116H197.928Z" fill="white"/>
<path d="M50.0449 0L72.0944 0V5.45044L66.8917 7.43242V36.6666C66.8917 36.6666 66.8917 46.5765 76.5539 46.5765C88.198 46.5765 87.7025 36.6666 87.7025 36.6666V7.43242L82.2521 5.45044V0L104.302 0V5.45044L98.8511 7.43242V36.6666C98.8511 42.117 95.3827 49.868 87.4548 53.2657C82.2521 55.4954 69.617 55.2476 64.4143 52.7702C61.8057 51.528 55.7431 46.1801 55.7431 36.6666V7.43242L50.0449 5.45044V0Z" fill="white"/>
<path fill-rule="evenodd" clip-rule="evenodd" d="M117.658 7.18467L112.208 5.69819V0L138.469 0C145.902 0.247747 161.51 3.71621 161.51 27.0045C161.51 47.8152 145.902 53.596 138.469 54.0089H112.208V48.8062L117.658 46.8242V7.18467ZM129.303 45.8332V7.92791H138.717C142.351 7.92791 149.618 11.6937 149.618 26.7567C149.618 41.8197 142.351 45.7507 138.717 45.8332H129.303Z" fill="white"/>
<path fill-rule="evenodd" clip-rule="evenodd" d="M0 5.69819L5.69819 6.93692L5.4045 46.5765L0 48.7622L0 54.0089H23.2882V48.7622L17.5901 46.5116V31.758C17.5901 31.758 23.2882 31.4639 25.0225 33.6936L35.1801 54.0089H48.063V48.7622L43.3558 46.7617C41.3738 42.9274 37.1621 34.8087 36.1711 33.0083C35.1801 31.2078 32.9504 30.0909 31.9594 29.7575C35.5104 28.8406 43.3558 25.7657 43.3558 14.2536C43.3558 3.46846 34.9324 0 28.9864 0L0 0L0 5.69819ZM16.8465 24.006V7.50188H24.279C30.2249 8.00201 31.9591 10.4526 31.9591 16.2541C31.9591 22.0555 26.839 24.006 24.279 24.006H16.8465Z" fill="white"/>
<path d="M237.387 48.1937C237.387 51.6144 234.614 54.3874 231.194 54.3874C227.773 54.3874 225 51.6144 225 48.1937C225 44.773 227.773 42 231.194 42C234.614 42 237.387 44.773 237.387 48.1937Z" fill="#FFC803"/>
<path fill-rule="evenodd" clip-rule="evenodd" d="M231.194 52.8159C233.746 52.8159 235.816 50.7465 235.816 48.1937C235.816 45.6409 233.746 43.5714 231.194 43.5714C228.641 43.5714 226.571 45.6409 226.571 48.1937C226.571 50.7465 228.641 52.8159 231.194 52.8159ZM231.194 54.3874C234.614 54.3874 237.387 51.6144 237.387 48.1937C237.387 44.773 234.614 42 231.194 42C227.773 42 225 44.773 225 48.1937C225 51.6144 227.773 54.3874 231.194 54.3874Z" fill="#FFC803"/>
<path d="M386.663 53.4456H380.93L375.876 44.1912H371.841V50.0247H374.707V53.4456H364.826V50.0247H367.655V33.4604H364.826V30.0396H375.726C378.768 30.0396 381.043 30.6517 382.552 31.876C384.06 33.0763 384.815 34.7688 384.815 36.9533C384.815 38.5137 384.375 39.8581 383.495 40.9864C382.64 42.0906 381.446 42.8828 379.912 43.363L383.646 50.0247H386.663V53.4456ZM380.364 37.0614C380.364 35.741 379.962 34.8168 379.158 34.2886C378.353 33.7365 376.983 33.4604 375.047 33.4604H371.841V40.9864H375.009C377.02 40.9864 378.416 40.6503 379.195 39.9781C379.975 39.2819 380.364 38.3097 380.364 37.0614Z" fill="white"/>
<path d="M361.212 53.4456H342.544V50.0247H345.373V33.4604H342.544V30.0396H360.948L361.703 36.8093L358.12 37.0974L357.366 33.4604H349.559V39.9421H360.345V43.363H349.559V50.0247H357.63L358.384 46.3877L361.967 46.6758L361.212 53.4456Z" fill="white"/>
<path d="M340.256 37.6735L336.635 37.9616L335.881 33.4604H331.091V50.0247H335.202V53.4456H322.945V50.0247H326.905V33.4604H322.077L321.323 37.9616L317.74 37.6735L318.495 30.0396H339.501L340.256 37.6735Z" fill="white"/>
<path d="M315.819 33.4604H312.991V53.4456L310.577 53.4816L297 37.2414H296.849V50.0247H300.432V53.4456H290.211V50.0247H292.927V33.4604H289.834V30.0396H295.981L308.917 45.5235H309.068V33.4604H305.485V30.0396H315.819V33.4604Z" fill="white"/>
<path d="M286.484 53.4456H267.815V50.0247H270.644V33.4604H267.815V30.0396H286.22L286.974 36.8093L283.391 37.0974L282.637 33.4604H274.83V39.9421H285.617V43.363H274.83V50.0247H282.901L283.655 46.3877L287.238 46.6758L286.484 53.4456Z" fill="white"/>
<path d="M264.137 51.213C263.257 52.0052 262 52.6413 260.365 53.1215C258.756 53.5776 257.084 53.8056 255.349 53.8056C251.804 53.8056 248.875 52.7134 246.562 50.5288C244.274 48.3202 243.13 45.4875 243.13 42.0306C243.13 40.0861 243.557 38.1656 244.412 36.2691C245.267 34.3726 246.6 32.8002 248.41 31.5519C250.22 30.3036 252.533 29.6794 255.349 29.6794C257.411 29.6794 259.171 29.9555 260.629 30.5077C262.088 31.0598 263.244 31.708 264.099 32.4522L264.74 37.5295L261.308 37.8535L260.705 34.6127C259.196 33.6765 257.386 33.2083 255.274 33.2083C252.961 33.2083 251.1 33.9765 249.692 35.5129C248.309 37.0493 247.618 39.1499 247.618 41.8146C247.618 44.5993 248.36 46.7118 249.843 48.1522C251.326 49.5685 253.275 50.2767 255.689 50.2767C257.7 50.2767 259.347 49.9406 260.629 49.2685L261.233 45.7756L264.665 46.0997L264.137 51.213Z" fill="white"/>
</svg>
