<svg width="889" height="117" viewBox="0 0 889 117" fill="none" xmlns="http://www.w3.org/2000/svg">
<path fill-rule="evenodd" clip-rule="evenodd" d="M669.955 0C666.455 0 663.617 2.83762 663.617 6.338V50.704C663.617 54.2044 666.455 57.042 669.955 57.042H720.025C723.526 57.042 726.363 54.2044 726.363 50.704V6.338C726.363 2.83762 723.526 0 720.025 0H669.955ZM703.2 26.2004H707.078C715.332 26.2004 718.691 33.4925 717.261 39.4756H722.622V25.5479C722.622 22.6928 721.518 21.8821 719.621 21.6646L710.784 21.5974V18.9123L717.829 18.8411C717.704 17.5361 717.015 16.0216 714.482 16.0216C711.565 16.0216 706.253 16.2351 706.253 16.2351L703.2 26.2004ZM704.259 14.2302C704.259 14.2302 711.489 14.0997 714.788 14.0997C718.091 14.0997 717.776 11.0824 717.776 11.0824H700.912L695.144 16.7532L667.159 16.4328L665.882 18.9795L671.642 25.3067L677.663 26.1371L679.411 19.4145L682.339 19.4817L680.471 26.5168L684.672 27.0902L686.625 19.5767L689.553 19.6439L687.475 27.4737L691.261 27.9918L693.408 19.7348L696.336 19.806L694.056 28.3872L699.559 29.1346L704.259 14.2302ZM678.424 45.1265C666.421 45.1265 666.965 28.2923 678.235 28.2923C689.505 28.2923 689.388 45.1265 678.424 45.1265ZM678.155 34.0303C674.57 34.0303 674.397 39.3886 678.215 39.3886C681.703 39.3886 681.727 34.0303 678.155 34.0303ZM688.945 36.9487H696.405C696.4 35.0373 696.708 33.1375 697.315 31.3214L686.806 29.8306L688.945 36.9487ZM707.05 28.2923C718.272 28.2923 718.203 45.1265 707.24 45.1265C695.237 45.1265 695.78 28.2923 707.05 28.2923ZM707.03 39.3886C710.518 39.3886 710.542 34.0303 706.97 34.0303C703.397 34.0303 703.212 39.3886 707.03 39.3886Z" fill="#FFC803"/>
<path fill-rule="evenodd" clip-rule="evenodd" d="M750.486 0C746.986 0 744.148 2.83762 744.148 6.338V50.704C744.148 54.2044 746.986 57.042 750.486 57.042H800.557C804.057 57.042 806.895 54.2044 806.895 50.704V6.338C806.895 2.83762 804.057 0 800.557 0H750.486ZM794.39 28.7478L795.482 19.369C798.066 19.369 799.014 18.0658 799.014 15.505H795.49C795.465 13.5647 795.22 11.0824 793.269 11.0824C793.269 11.0824 793.273 15.505 789.007 15.505C784.742 15.505 784.742 11.0824 784.742 11.0824C782.79 11.099 782.55 13.5647 782.52 15.505H778.996C778.996 18.0658 779.949 19.369 782.52 19.369L783.536 28.8223L794.39 28.7478ZM781.568 30.5888C781.568 30.5888 780.657 22.6994 780.468 21.2307C778.482 21.2307 776.396 18.5623 776.396 15.4967C772.886 15.4967 770.444 15.474 768.615 15.4571C767.52 15.4469 766.645 15.4388 765.892 15.4388C762.427 15.4388 761.086 16.9571 761.086 20.0144V28.0197L758.161 33.0338L759.801 44.9735L763.236 45.0314L763.991 36.4221L776.126 36.7531L776.703 44.9445L780.822 44.9735L781.391 36.629H784.628L785.471 44.659L789.581 44.8121L788.826 31.1597L781.568 30.5888ZM767.569 45.1265L771.068 45.0148L770.267 38.3872L765.668 38.1928L767.569 45.1265Z" fill="#FFC803"/>
<path fill-rule="evenodd" clip-rule="evenodd" d="M831.014 0C827.513 0 824.676 2.83762 824.676 6.338V50.704C824.676 54.2044 827.513 57.042 831.014 57.042H881.084C884.584 57.042 887.422 54.2044 887.422 50.704V6.338C887.422 2.83762 884.584 0 881.084 0H831.014ZM869.263 45.9596V40.1234L866.957 40.1447L867.004 42.1679H865.117L865.071 39.6495C867.883 39.2887 868.826 37.3928 868.826 34.3793C868.826 32.9786 868.805 16.3014 868.805 16.3014L866.617 16.3226L865.092 13.4187L860.103 13.1888L857.017 11.9155L854.102 14.5718L850.662 14.0625L849.07 16.4783H847.162C847.162 16.4783 847.258 32.7169 847.258 34.3015C847.258 37.697 848.371 39.2392 850.804 39.5469L850.758 42.0971H848.903V40.1234L846.566 40.0527L846.701 45.8888L848.893 45.9596V43.9505H867.025L867.071 45.8888L869.263 45.9596ZM866.358 18.7844V34.6481H866.365C866.365 34.6901 866.365 34.7317 866.365 34.7729C866.367 36.2986 866.368 37.308 864.234 37.308H852.116C850.123 37.308 849.552 36.1337 849.531 34.5809C849.471 29.82 849.499 18.7844 849.499 18.7844H866.358ZM863.042 32.1898L859.358 28.7943L861.478 26.527L864.982 29.003L865.266 28.819C865.072 27.216 864.414 25.7041 863.372 24.4685L863.791 24.0193L862.847 22.8839L862.291 23.3932C861.507 22.6646 860.659 21.9253 860.659 21.9253L858.755 23.8141L860.209 25.3138L857.883 27.436L856.141 25.8302L857.677 23.7787C857.588 23.2906 856.358 21.9501 855.624 21.7874L853.439 23.3649L853.084 23.0112L851.946 23.9556L852.372 24.4154L850.669 26.7605C851.191 27.6169 851.911 28.3361 852.769 28.8579L854.897 27.1602L856.411 28.7978L852.595 32.303C851.503 33.3641 853.276 35.2671 854.464 34.0716L857.879 30.386L861.269 34.0539C862.333 35.1433 864.241 33.3748 863.042 32.1898Z" fill="#FFC803"/>
<path fill-rule="evenodd" clip-rule="evenodd" d="M589.424 0C585.924 0 583.086 2.83762 583.086 6.338V50.704C583.086 54.2044 585.924 57.042 589.424 57.042H639.494C642.995 57.042 645.832 54.2044 645.832 50.704V6.338C645.832 2.83762 642.995 0 639.494 0H589.424ZM627.776 23.8798C630.023 23.8955 632.462 23.9126 634.106 23.9126C635.905 23.9126 635.663 21.0971 633.187 20.3886C630.889 19.7081 628.419 19.8738 626.236 20.8548C625.182 21.3577 622.419 21.7799 621.768 21.7248C619.724 21.5486 617.225 23.362 617.225 26.3427L618.305 26.3133C618.953 24.7422 620.558 23.8539 623.048 23.8539C624.074 23.8539 625.855 23.8664 627.776 23.8798ZM618.824 18.0121C622.88 18.0357 627.28 18.0613 630.003 18.0613C632.982 18.0613 632.55 13.6563 628.458 12.4964C624.493 11.3768 620.505 11.9054 616.674 13.8252C615.01 14.6621 610.378 15.2054 609.298 15.1247C608.369 15.0469 607.432 15.1615 606.55 15.4612C605.667 15.7608 604.858 16.2388 604.174 16.8647C603.49 17.4905 602.946 18.2503 602.577 19.0955C602.208 19.9406 602.022 20.8524 602.031 21.7725L603.148 21.7322C604.719 18.8616 606.744 17.9732 610.438 17.9732C612.14 17.9732 615.356 17.9919 618.824 18.0121ZM618.137 42.465L616.793 42.9752C613.253 37.234 611.417 30.0245 611.417 23.4868L600.664 23.3253C600.664 30.4026 598.453 37.3185 595.359 43.0817L592.38 43.111L592.157 45.9596L631.947 45.8935L631.865 42.7182L628.983 42.7476C626.415 38.2102 625.06 33.1027 625.048 27.9065L616.417 27.778C616.407 30.1952 616.101 32.6023 615.505 34.9471C615.982 37.5724 616.87 40.1086 618.137 42.465ZM603.412 29.9144H608.025L607.284 34.0331L609.552 34.7452L606.286 41.4848L605.914 36.7128L603.822 36.3677L603.412 29.9144Z" fill="#FFC803"/>
<path fill-rule="evenodd" clip-rule="evenodd" d="M351.744 103.685L361.266 101.04L398.826 0L423.16 0L459.132 101.04L467.597 103.685V114.794H421.044V103.685L432.153 101.04L427.392 84.641H388.246L383.485 101.04L394.065 103.685V114.794H351.744V103.685ZM422.632 67.7128L408.878 21.6892L393.537 67.7128H422.632Z" fill="white"/>
<path d="M106.859 0L153.941 0V11.6381L142.832 15.8702V78.2929C142.832 78.2929 142.832 99.4532 163.463 99.4532C188.326 99.4532 187.268 78.2929 187.268 78.2929V15.8702L175.63 11.6381V0L222.712 0V11.6381L211.074 15.8702V78.2929C211.074 89.9311 203.668 106.481 186.739 113.736C175.63 118.497 148.651 117.968 137.542 112.678C131.972 110.026 119.027 98.6068 119.027 78.2929V15.8702L106.859 11.6381V0Z" fill="white"/>
<path fill-rule="evenodd" clip-rule="evenodd" d="M251.234 15.3412L239.596 12.1671V0L295.67 0C311.541 0.529006 344.868 7.9351 344.868 57.6617C344.868 102.098 311.541 114.442 295.67 115.323H239.596V104.214L251.234 99.9822V15.3412ZM276.098 97.8662V16.9282H296.2C303.959 16.9282 319.476 24.9691 319.476 57.1327C319.476 89.2963 303.959 97.6899 296.2 97.8662H276.098Z" fill="white"/>
<path fill-rule="evenodd" clip-rule="evenodd" d="M0 12.1671L12.1671 14.8122L11.5401 99.4532L0 104.12L0 115.323H49.7266V104.12L37.5595 99.3148V67.8117C37.5595 67.8117 49.7266 67.1838 53.4296 71.9449L75.1189 115.323H102.627V104.12L92.5761 99.8487C88.3441 91.6615 79.351 74.3259 77.2349 70.4815C75.1189 66.637 70.3579 64.252 68.2418 63.5401C75.8243 61.5823 92.5761 55.0167 92.5761 30.4352C92.5761 7.40609 74.5899 0 61.8938 0L0 0L0 12.1671ZM35.9719 51.2593V16.0185H51.842C64.5382 17.0864 68.2412 22.3191 68.2412 34.7068C68.2412 47.0944 57.3084 51.2593 51.842 51.2593H35.9719Z" fill="white"/>
<path d="M888.623 114.121H876.382L865.591 94.3601H856.975V106.816H863.095V114.121H841.996V106.816H848.036V71.4471H841.996V64.1426H865.269C871.765 64.1426 876.624 65.4497 879.845 68.0639C883.066 70.6269 884.677 74.2407 884.677 78.9053C884.677 82.2372 883.737 85.1077 881.858 87.5169C880.033 89.8749 877.483 91.5664 874.208 92.5916L882.181 106.816H888.623V114.121ZM875.174 79.136C875.174 76.3167 874.315 74.3432 872.597 73.2155C870.879 72.0366 867.954 71.4471 863.82 71.4471H856.975V87.5169H863.739C868.034 87.5169 871.014 86.7993 872.678 85.364C874.342 83.8775 875.174 81.8015 875.174 79.136Z" fill="white"/>
<path d="M834.282 114.121H794.42V106.816H800.46V71.4471H794.42V64.1426H833.719L835.329 78.5978L827.679 79.2129L826.068 71.4471H809.398V85.2871H832.43V92.5916H809.398V106.816H826.632L828.242 99.0503L835.893 99.6654L834.282 114.121Z" fill="white"/>
<path d="M789.531 80.4431L781.801 81.0582L780.19 71.4471H769.963V106.816H778.74V114.121H752.568V106.816H761.024V71.4471H750.716L749.105 81.0582L741.455 80.4431L743.066 64.1426H787.921L789.531 80.4431Z" fill="white"/>
<path d="M737.352 71.4471H731.313V114.121L726.159 114.198L697.168 79.5204H696.846V106.816H704.496V114.121H682.672V106.816H688.471V71.4471H681.867V64.1426H694.994L722.615 97.205H722.937V71.4471H715.287V64.1426H737.352V71.4471Z" fill="white"/>
<path d="M674.718 114.121H634.855V106.816H640.895V71.4471H634.855V64.1426H674.154L675.765 78.5978L668.114 79.2129L666.504 71.4471H649.834V85.2871H672.866V92.5916H649.834V106.816H667.067L668.678 99.0503L676.328 99.6654L674.718 114.121Z" fill="white"/>
<path d="M627 109.353C625.121 111.045 622.436 112.403 618.947 113.428C615.511 114.402 611.941 114.889 608.236 114.889C600.666 114.889 594.412 112.557 589.473 107.892C584.587 103.177 582.145 97.1279 582.145 89.7466C582.145 85.5945 583.057 81.4938 584.883 77.4443C586.708 73.3948 589.553 70.0373 593.419 67.3718C597.284 64.7063 602.223 63.3735 608.236 63.3735C612.639 63.3735 616.397 63.963 619.51 65.142C622.624 66.321 625.094 67.705 626.919 69.294L628.288 80.1354L620.96 80.8274L619.671 73.9074C616.45 71.9083 612.585 70.9087 608.075 70.9087C603.136 70.9087 599.163 72.549 596.157 75.8296C593.204 79.1102 591.728 83.5954 591.728 89.2852C591.728 95.2313 593.311 99.7422 596.479 102.818C599.646 105.842 603.807 107.354 608.961 107.354C613.256 107.354 616.772 106.637 619.51 105.201L620.799 97.7431L628.127 98.4351L627 109.353Z" fill="white"/>
<path fill-rule="evenodd" clip-rule="evenodd" d="M517.573 21.1435L488.499 25.3675L522.855 0L532.904 13.2132L564.084 9.50694L528.138 33.2978L517.573 21.1435ZM517.302 42.5342C516.572 52.1117 515.008 72.5963 514.713 76.9615C513.431 95.4695 538.245 95.4577 536.728 76.9615C536.398 72.7258 534.563 50.0409 533.951 42.5342L560.33 39.4515C560.33 39.4515 562.683 66.6074 563.307 77.6204C566.201 129.897 484.086 130.356 488.146 77.6204C488.734 69.8901 491.123 39.5574 491.123 39.5574L517.302 42.5342ZM525.373 109.412V98.8228C515.313 99.2111 505.371 92.2573 506.665 77.644C507.007 73.7259 508.713 49.7232 508.713 49.7232L498.253 48.5466C498.253 48.5466 496.429 70.7844 496.029 76.9851C494.629 98.8581 509.995 109.706 525.373 109.353V109.412Z" fill="#FFC803"/>
</svg>
