<svg width="25" height="24" viewBox="0 0 25 24" fill="none" xmlns="http://www.w3.org/2000/svg">
<path fill-rule="evenodd" clip-rule="evenodd" d="M24.6877 7.48635C24.1486 12.1877 23.796 12.4611 18.4994 12.1877L14.8865 15.6012L14.631 11.9066C11.9328 11.554 11.7361 10.7492 11.2736 7.69331C10.4918 2.51674 10.6783 2.45542 17.2806 1.79877C24.7337 1.06035 25.3981 1.27243 24.6877 7.48635ZM14.4189 23.9998C14.4189 23.9998 8.09257 24.1735 2.86746 15.1311C-2.35766 6.08873 1.15556 0 1.15556 0L6.06129 1.14467L5.98464 7.74441L4.10922 9.71948L7.94183 16.1557L10.6093 15.5834L16.2305 18.8079L14.4189 23.9998Z" fill="#444863"/>
</svg>
