<svg width="100" height="100" viewBox="0 0 100 100" fill="none" xmlns="http://www.w3.org/2000/svg">
<path d="M59.7923 8.33325H40.209C35.8756 8.33325 32.334 11.8333 32.334 16.1666V20.0833C32.334 24.4166 35.834 27.9166 40.1673 27.9166H59.7923C64.1257 27.9166 67.6257 24.4166 67.6257 20.0833V16.1666C67.6673 11.8333 64.1257 8.33325 59.7923 8.33325Z" fill="#FFC803"/>
<path d="M71.834 20.0832C71.834 26.7082 66.4173 32.1249 59.7923 32.1249H40.209C33.584 32.1249 28.1673 26.7082 28.1673 20.0832C28.1673 17.7499 25.6673 16.2916 23.584 17.3749C17.709 20.4999 13.709 26.7082 13.709 33.8332V73.0416C13.709 83.2916 22.084 91.6666 32.334 91.6666H67.6673C77.9173 91.6666 86.2923 83.2916 86.2923 73.0416V33.8332C86.2923 26.7082 82.2923 20.4999 76.4173 17.3749C74.334 16.2916 71.834 17.7499 71.834 20.0832ZM63.9173 53.0416L47.2507 69.7082C46.6257 70.3332 45.834 70.6249 45.0423 70.6249C44.2507 70.6249 43.459 70.3332 42.834 69.7082L36.584 63.4582C35.3757 62.2499 35.3757 60.2499 36.584 59.0416C37.7923 57.8332 39.7923 57.8332 41.0007 59.0416L45.0423 63.0832L59.5007 48.6249C60.709 47.4166 62.709 47.4166 63.9173 48.6249C65.1257 49.8332 65.1257 51.8332 63.9173 53.0416Z" fill="#FFC803"/>
</svg>
