<svg width="387" height="55" viewBox="0 0 387 55" fill="none" xmlns="http://www.w3.org/2000/svg">
<path d="M281.285 2.96825C281.285 1.32893 282.614 0 284.253 0H307.703C309.342 0 310.671 1.32893 310.671 2.96825V23.746C310.671 25.3853 309.342 26.7142 307.703 26.7142H284.253C282.614 26.7142 281.285 25.3853 281.285 23.746V2.96825Z" fill="#FFC803"/>
<path fill-rule="evenodd" clip-rule="evenodd" d="M301.639 12.2703H299.823L301.252 7.60332C301.252 7.60332 303.741 7.50331 305.106 7.50331C306.293 7.50331 306.615 8.21262 306.674 8.82378L303.375 8.85711V10.1146L307.513 10.1461C308.402 10.248 308.919 10.6276 308.919 11.9647V18.4874H306.408C307.078 15.6854 305.504 12.2703 301.639 12.2703ZM305.25 6.60325C303.705 6.60325 300.319 6.66436 300.319 6.66436L298.117 13.6445L295.541 13.2945L296.608 9.27566L295.237 9.24233L294.232 13.1093L292.458 12.8667L293.432 9.19973L292.06 9.16825L291.145 12.687L289.178 12.4185L290.053 9.1238L288.682 9.09231L287.863 12.2407L285.043 11.8518L282.346 8.8886L282.944 7.69592L296.05 7.84593L298.751 5.19019H306.649C306.649 5.19019 306.796 6.60325 305.25 6.60325ZM288.22 21.1339C282.598 21.1339 282.853 13.25 288.131 13.25C293.409 13.25 293.354 21.1339 288.22 21.1339ZM288.093 15.9372C286.415 15.9372 286.333 18.4467 288.122 18.4467C289.755 18.4467 289.767 15.9372 288.093 15.9372ZM296.64 17.304H293.147L292.145 13.9704L297.067 14.6686C296.782 15.5191 296.638 16.4089 296.64 17.304ZM301.626 13.25C306.881 13.25 306.849 21.1339 301.715 21.1339C296.093 21.1339 296.348 13.25 301.626 13.25ZM301.617 18.4467C303.25 18.4467 303.261 15.9372 301.588 15.9372C299.915 15.9372 299.828 18.4467 301.617 18.4467Z" fill="#444863"/>
<path d="M318.999 2.96825C318.999 1.32893 320.328 0 321.967 0H345.416C347.056 0 348.385 1.32893 348.385 2.96825V23.746C348.385 25.3853 347.056 26.7142 345.416 26.7142H321.967C320.328 26.7142 318.999 25.3853 318.999 23.746V2.96825Z" fill="#FFC803"/>
<path fill-rule="evenodd" clip-rule="evenodd" d="M343.041 9.07101L342.529 13.4633L337.446 13.4982L336.971 9.07101C335.766 9.07101 335.32 8.46069 335.32 7.26138H336.971C336.984 6.35269 337.097 5.19794 338.011 5.19019C338.011 5.19019 338.011 7.26138 340.009 7.26138C342.006 7.26138 342.004 5.19019 342.004 5.19019C342.918 5.19019 343.033 6.35269 343.045 7.26138H344.695C344.695 8.46069 344.251 9.07101 343.041 9.07101ZM336.009 9.94288C336.098 10.6307 336.524 14.3255 336.524 14.3255L339.924 14.5929L340.277 20.9867L338.352 20.915L337.958 17.1543H336.441L336.175 21.0622L334.246 21.0487L333.976 17.2124L328.293 17.0574L327.939 21.0894L326.33 21.0622L325.562 15.4706L326.932 13.1223V9.37326C326.932 7.94144 327.56 7.23038 329.183 7.23038C330.125 7.23038 331.475 7.2575 334.102 7.2575C334.102 8.69319 335.079 9.94288 336.009 9.94288ZM331.607 21.0816L329.969 21.1339L329.078 17.8867L331.232 17.9777L331.607 21.0816Z" fill="#444863"/>
<path d="M356.713 2.96825C356.713 1.32893 358.042 0 359.681 0H383.13C384.77 0 386.099 1.32893 386.099 2.96825V23.746C386.099 25.3853 384.77 26.7142 383.13 26.7142H359.681C358.042 26.7142 356.713 25.3853 356.713 23.746V2.96825Z" fill="#FFC803"/>
<path fill-rule="evenodd" clip-rule="evenodd" d="M377.595 18.7908V21.524L376.569 21.4909L376.547 20.5832H368.055V21.524L367.029 21.4909L366.966 18.7577L368.06 18.7908V19.7152H368.929L368.95 18.5208C367.811 18.3767 367.29 17.6545 367.29 16.0643C367.29 15.3221 367.245 7.7172 367.245 7.7172H368.138L368.884 6.58581L370.495 6.82435L371.86 5.58032L373.305 6.17666L375.642 6.28433L376.356 7.64431L377.381 7.63437C377.381 7.63437 377.391 15.4447 377.391 16.1007C377.391 17.512 376.949 18.3999 375.632 18.5689L375.653 19.7483H376.537L376.515 18.8008L377.595 18.7908ZM376.235 16.2266V8.79723H368.339C368.339 8.79723 368.326 13.9655 368.354 16.1951C368.364 16.9223 368.632 17.4723 369.565 17.4723H375.24C376.266 17.4723 376.238 16.9737 376.238 16.2266H376.235ZM372.956 13.4851L374.682 15.0753C375.243 15.6303 374.35 16.4585 373.852 15.9483L372.264 14.2305L370.664 15.9566C370.108 16.5165 369.278 15.6253 369.789 15.1283L371.576 13.4868L370.867 12.7198L369.871 13.5149C369.469 13.2705 369.132 12.9337 368.887 12.5326L369.685 11.4344L369.485 11.219L370.018 10.7767L370.184 10.9424L371.208 10.2036C371.551 10.2798 372.128 10.9076 372.169 11.1362L371.45 12.097L372.265 12.849L373.355 11.8551L372.674 11.1528L373.566 10.2682C373.566 10.2682 373.963 10.6144 374.33 10.9556L374.591 10.7171L375.032 11.2488L374.836 11.4592C375.324 12.0379 375.633 12.746 375.723 13.4967L375.59 13.5828L373.95 12.4233L372.956 13.4851Z" fill="#444863"/>
<path d="M243.57 2.96825C243.57 1.32893 244.899 0 246.539 0H269.988C271.627 0 272.956 1.32893 272.956 2.96825V23.746C272.956 25.3853 271.627 26.7142 269.988 26.7142H246.539C244.899 26.7142 243.57 25.3853 243.57 23.746V2.96825Z" fill="#FFC803"/>
<path fill-rule="evenodd" clip-rule="evenodd" d="M267.465 11.1989C266.036 11.1989 263.329 11.1714 262.286 11.1714C261.119 11.1714 260.368 11.5874 260.064 12.3232L259.559 12.337C259.559 10.941 260.729 10.0918 261.686 10.1743C261.991 10.2001 263.285 10.0024 263.778 9.76685C264.801 9.30741 265.958 9.22982 267.034 9.54852C268.193 9.88031 268.307 11.1989 267.465 11.1989ZM265.543 8.45858C263.177 8.45858 258.11 8.41732 256.38 8.41732C254.65 8.41732 253.702 8.83336 252.966 10.1777L252.443 10.1966C252.438 9.76572 252.525 9.33869 252.698 8.94289C252.871 8.54709 253.126 8.19125 253.446 7.89815C253.767 7.60506 254.146 7.38118 254.559 7.24086C254.972 7.10054 255.411 7.04686 255.846 7.08327C256.352 7.12109 258.521 6.86666 259.301 6.4747C261.095 5.57559 262.962 5.32803 264.819 5.85237C266.736 6.39562 266.938 8.45858 265.543 8.45858ZM259.356 20.1264L259.986 19.8874C259.392 18.7839 258.976 17.5961 258.753 16.3666C259.032 15.2685 259.176 14.1412 259.18 13.0091L263.222 13.0693C263.228 15.5028 263.862 17.8948 265.065 20.0198L266.415 20.006L266.453 21.4931L247.818 21.524L247.923 20.19L249.318 20.1762C250.767 17.4772 251.803 14.2383 251.803 10.9238L256.838 10.9995C256.838 14.0613 257.698 17.4377 259.356 20.1264ZM255.25 14.0097H253.09L253.281 17.0319L254.261 17.1935L254.436 19.4284L255.965 16.2721L254.903 15.9386L255.25 14.0097Z" fill="#444863"/>
<path fill-rule="evenodd" clip-rule="evenodd" d="M164.729 48.5585L169.189 47.3197L186.779 0L198.175 0L215.022 47.3197L218.986 48.5585V53.7612H197.184V48.5585L202.387 47.3197L200.157 39.6396H181.824L179.594 47.3197L184.549 48.5585V53.7612H164.729V48.5585ZM197.928 31.7116L191.487 10.1576L184.302 31.7116H197.928Z" fill="#444863"/>
<path d="M50.0449 0L72.0944 0V5.45044L66.8917 7.43242V36.6666C66.8917 36.6666 66.8917 46.5765 76.5539 46.5765C88.198 46.5765 87.7025 36.6666 87.7025 36.6666V7.43242L82.2521 5.45044V0L104.302 0V5.45044L98.8511 7.43242V36.6666C98.8511 42.117 95.3827 49.868 87.4548 53.2657C82.2521 55.4954 69.617 55.2476 64.4143 52.7702C61.8057 51.528 55.7431 46.1801 55.7431 36.6666V7.43242L50.0449 5.45044V0Z" fill="#444863"/>
<path fill-rule="evenodd" clip-rule="evenodd" d="M117.658 7.18467L112.208 5.69819V0L138.469 0C145.902 0.247747 161.51 3.71621 161.51 27.0045C161.51 47.8152 145.902 53.596 138.469 54.0089H112.208V48.8062L117.658 46.8242V7.18467ZM129.303 45.8332V7.92791H138.717C142.351 7.92791 149.618 11.6937 149.618 26.7567C149.618 41.8197 142.351 45.7507 138.717 45.8332H129.303Z" fill="#444863"/>
<path fill-rule="evenodd" clip-rule="evenodd" d="M0 5.69819L5.69819 6.93692L5.4045 46.5765L0 48.7622L0 54.0089H23.2882V48.7622L17.5901 46.5116V31.758C17.5901 31.758 23.2882 31.4639 25.0225 33.6936L35.1801 54.0089H48.063V48.7622L43.3558 46.7617C41.3738 42.9274 37.1621 34.8087 36.1711 33.0083C35.1801 31.2078 32.9504 30.0909 31.9594 29.7575C35.5104 28.8406 43.3558 25.7657 43.3558 14.2536C43.3558 3.46846 34.9324 0 28.9864 0L0 0L0 5.69819ZM16.8465 24.006V7.50188H24.279C30.2249 8.00201 31.9591 10.4526 31.9591 16.2541C31.9591 22.0555 26.839 24.006 24.279 24.006H16.8465Z" fill="#444863"/>
<path d="M237.387 48.1937C237.387 51.6144 234.614 54.3874 231.194 54.3874C227.773 54.3874 225 51.6144 225 48.1937C225 44.773 227.773 42 231.194 42C234.614 42 237.387 44.773 237.387 48.1937Z" fill="#FFC803"/>
<path fill-rule="evenodd" clip-rule="evenodd" d="M231.194 52.8159C233.746 52.8159 235.816 50.7465 235.816 48.1937C235.816 45.6409 233.746 43.5714 231.194 43.5714C228.641 43.5714 226.571 45.6409 226.571 48.1937C226.571 50.7465 228.641 52.8159 231.194 52.8159ZM231.194 54.3874C234.614 54.3874 237.387 51.6144 237.387 48.1937C237.387 44.773 234.614 42 231.194 42C227.773 42 225 44.773 225 48.1937C225 51.6144 227.773 54.3874 231.194 54.3874Z" fill="#444863"/>
<path d="M386.663 53.4454H380.93L375.876 44.1911H371.841V50.0246H374.707V53.4454H364.826V50.0246H367.655V33.4603H364.826V30.0394H375.726C378.768 30.0394 381.043 30.6516 382.552 31.8759C384.06 33.0762 384.815 34.7686 384.815 36.9532C384.815 38.5136 384.375 39.8579 383.495 40.9862C382.64 42.0905 381.446 42.8827 379.912 43.3628L383.646 50.0246H386.663V53.4454ZM380.364 37.0612C380.364 35.7409 379.962 34.8167 379.158 34.2885C378.353 33.7364 376.983 33.4603 375.047 33.4603H371.841V40.9862H375.009C377.02 40.9862 378.416 40.6502 379.195 39.978C379.975 39.2818 380.364 38.3096 380.364 37.0612Z" fill="#444863"/>
<path d="M361.212 53.4454H342.544V50.0246H345.373V33.4603H342.544V30.0394H360.948L361.703 36.8092L358.12 37.0972L357.366 33.4603H349.559V39.942H360.345V43.3628H349.559V50.0246H357.63L358.384 46.3876L361.967 46.6757L361.212 53.4454Z" fill="#444863"/>
<path d="M340.256 37.6734L336.635 37.9615L335.881 33.4603H331.091V50.0246H335.202V53.4454H322.945V50.0246H326.905V33.4603H322.077L321.323 37.9615L317.74 37.6734L318.495 30.0394H339.501L340.256 37.6734Z" fill="#444863"/>
<path d="M315.819 33.4603H312.991V53.4454L310.577 53.4814L297 37.2413H296.849V50.0246H300.432V53.4454H290.211V50.0246H292.927V33.4603H289.834V30.0394H295.981L308.917 45.5234H309.068V33.4603H305.485V30.0394H315.819V33.4603Z" fill="#444863"/>
<path d="M286.484 53.4454H267.815V50.0246H270.644V33.4603H267.815V30.0394H286.22L286.974 36.8092L283.391 37.0972L282.637 33.4603H274.83V39.942H285.617V43.3628H274.83V50.0246H282.901L283.655 46.3876L287.238 46.6757L286.484 53.4454Z" fill="#444863"/>
<path d="M264.137 51.213C263.257 52.0052 262 52.6413 260.365 53.1215C258.756 53.5776 257.084 53.8056 255.349 53.8056C251.804 53.8056 248.875 52.7134 246.562 50.5288C244.274 48.3202 243.13 45.4875 243.13 42.0306C243.13 40.0861 243.557 38.1656 244.412 36.2691C245.267 34.3726 246.6 32.8002 248.41 31.5519C250.22 30.3036 252.533 29.6794 255.349 29.6794C257.411 29.6794 259.171 29.9555 260.629 30.5077C262.088 31.0598 263.244 31.708 264.099 32.4522L264.74 37.5295L261.308 37.8535L260.705 34.6127C259.196 33.6765 257.386 33.2083 255.274 33.2083C252.961 33.2083 251.1 33.9765 249.692 35.5129C248.309 37.0493 247.618 39.1499 247.618 41.8146C247.618 44.5993 248.36 46.7118 249.843 48.1522C251.326 49.5685 253.275 50.2767 255.689 50.2767C257.7 50.2767 259.347 49.9406 260.629 49.2685L261.233 45.7756L264.665 46.0997L264.137 51.213Z" fill="#444863"/>
</svg>
