<svg width="889" height="119" viewBox="0 0 889 119" fill="none" xmlns="http://www.w3.org/2000/svg">
<path fill-rule="evenodd" clip-rule="evenodd" d="M669.955 2C666.455 2 663.617 4.83762 663.617 8.338V52.704C663.617 56.2044 666.455 59.042 669.955 59.042H720.025C723.526 59.042 726.363 56.2044 726.363 52.704V8.338C726.363 4.83762 723.526 2 720.025 2H669.955ZM703.2 28.2004H707.078C715.332 28.2004 718.691 35.4925 717.261 41.4756H722.622V27.5479C722.622 24.6928 721.518 23.8821 719.621 23.6646L710.784 23.5974V20.9123L717.829 20.8411C717.704 19.5361 717.015 18.0216 714.482 18.0216C711.565 18.0216 706.253 18.2351 706.253 18.2351L703.2 28.2004ZM704.259 16.2302C704.259 16.2302 711.489 16.0997 714.788 16.0997C718.091 16.0997 717.776 13.0824 717.776 13.0824H700.912L695.144 18.7532L667.159 18.4328L665.882 20.9795L671.642 27.3067L677.663 28.1371L679.411 21.4145L682.339 21.4817L680.471 28.5168L684.672 29.0902L686.625 21.5767L689.553 21.6439L687.475 29.4737L691.261 29.9918L693.408 21.7348L696.336 21.806L694.056 30.3872L699.559 31.1346L704.259 16.2302ZM678.424 47.1265C666.421 47.1265 666.965 30.2923 678.235 30.2923C689.505 30.2923 689.388 47.1265 678.424 47.1265ZM678.155 36.0303C674.57 36.0303 674.397 41.3886 678.215 41.3886C681.703 41.3886 681.727 36.0303 678.155 36.0303ZM688.945 38.9487H696.405C696.4 37.0373 696.708 35.1375 697.315 33.3214L686.806 31.8306L688.945 38.9487ZM707.05 30.2923C718.272 30.2923 718.203 47.1265 707.24 47.1265C695.237 47.1265 695.78 30.2923 707.05 30.2923ZM707.03 41.3886C710.518 41.3886 710.542 36.0303 706.97 36.0303C703.397 36.0303 703.212 41.3886 707.03 41.3886Z" fill="#FFC803"/>
<path fill-rule="evenodd" clip-rule="evenodd" d="M750.486 2C746.986 2 744.148 4.83762 744.148 8.338V52.704C744.148 56.2044 746.986 59.042 750.486 59.042H800.557C804.057 59.042 806.895 56.2044 806.895 52.704V8.338C806.895 4.83762 804.057 2 800.557 2H750.486ZM794.39 30.7478L795.482 21.369C798.066 21.369 799.014 20.0658 799.014 17.505H795.49C795.465 15.5647 795.22 13.0824 793.269 13.0824C793.269 13.0824 793.273 17.505 789.007 17.505C784.742 17.505 784.742 13.0824 784.742 13.0824C782.79 13.099 782.55 15.5647 782.52 17.505H778.996C778.996 20.0658 779.949 21.369 782.52 21.369L783.536 30.8223L794.39 30.7478ZM781.568 32.5888C781.568 32.5888 780.657 24.6994 780.468 23.2307C778.482 23.2307 776.396 20.5623 776.396 17.4967C772.886 17.4967 770.444 17.474 768.615 17.4571C767.52 17.4469 766.645 17.4388 765.892 17.4388C762.427 17.4388 761.086 18.9571 761.086 22.0144V30.0197L758.161 35.0338L759.801 46.9735L763.236 47.0314L763.991 38.4221L776.126 38.7531L776.703 46.9445L780.822 46.9735L781.391 38.629H784.628L785.471 46.659L789.581 46.8121L788.826 33.1597L781.568 32.5888ZM767.569 47.1265L771.068 47.0148L770.267 40.3872L765.668 40.1928L767.569 47.1265Z" fill="#FFC803"/>
<path fill-rule="evenodd" clip-rule="evenodd" d="M831.014 2C827.513 2 824.676 4.83762 824.676 8.338V52.704C824.676 56.2044 827.513 59.042 831.014 59.042H881.084C884.584 59.042 887.422 56.2044 887.422 52.704V8.338C887.422 4.83762 884.584 2 881.084 2H831.014ZM869.263 47.9596V42.1234L866.957 42.1447L867.004 44.1679H865.117L865.071 41.6495C867.883 41.2887 868.826 39.3928 868.826 36.3793C868.826 34.9786 868.805 18.3014 868.805 18.3014L866.617 18.3226L865.092 15.4187L860.103 15.1888L857.017 13.9155L854.102 16.5718L850.662 16.0625L849.07 18.4783H847.162C847.162 18.4783 847.258 34.7169 847.258 36.3015C847.258 39.697 848.371 41.2392 850.804 41.5469L850.758 44.0971H848.903V42.1234L846.566 42.0527L846.701 47.8888L848.893 47.9596V45.9505H867.025L867.071 47.8888L869.263 47.9596ZM866.358 20.7844V36.6481H866.365C866.365 36.6901 866.365 36.7317 866.365 36.7729C866.367 38.2986 866.368 39.308 864.234 39.308H852.116C850.123 39.308 849.552 38.1337 849.531 36.5809C849.471 31.82 849.499 20.7844 849.499 20.7844H866.358ZM863.042 34.1898L859.358 30.7943L861.478 28.527L864.982 31.003L865.266 30.819C865.072 29.216 864.414 27.7041 863.372 26.4685L863.791 26.0193L862.847 24.8839L862.291 25.3932C861.507 24.6646 860.659 23.9253 860.659 23.9253L858.755 25.8141L860.209 27.3138L857.883 29.436L856.141 27.8302L857.677 25.7787C857.588 25.2906 856.358 23.9501 855.624 23.7874L853.439 25.3649L853.084 25.0112L851.946 25.9556L852.372 26.4154L850.669 28.7605C851.191 29.6169 851.911 30.3361 852.769 30.8579L854.897 29.1602L856.411 30.7978L852.595 34.303C851.503 35.3641 853.276 37.2671 854.464 36.0716L857.879 32.386L861.269 36.0539C862.333 37.1433 864.241 35.3748 863.042 34.1898Z" fill="#FFC803"/>
<path fill-rule="evenodd" clip-rule="evenodd" d="M589.424 2C585.924 2 583.086 4.83762 583.086 8.338V52.704C583.086 56.2044 585.924 59.042 589.424 59.042H639.494C642.995 59.042 645.832 56.2044 645.832 52.704V8.338C645.832 4.83762 642.995 2 639.494 2H589.424ZM627.776 25.8798C630.023 25.8955 632.462 25.9126 634.106 25.9126C635.905 25.9126 635.663 23.0971 633.187 22.3886C630.889 21.7081 628.419 21.8738 626.236 22.8548C625.182 23.3577 622.419 23.7799 621.768 23.7248C619.724 23.5486 617.225 25.362 617.225 28.3427L618.305 28.3133C618.953 26.7422 620.558 25.8539 623.048 25.8539C624.074 25.8539 625.855 25.8664 627.776 25.8798ZM618.824 20.0121C622.88 20.0357 627.28 20.0613 630.003 20.0613C632.982 20.0613 632.55 15.6563 628.458 14.4964C624.493 13.3768 620.505 13.9054 616.674 15.8252C615.01 16.6621 610.378 17.2054 609.298 17.1247C608.369 17.0469 607.432 17.1615 606.55 17.4612C605.667 17.7608 604.858 18.2388 604.174 18.8647C603.49 19.4905 602.946 20.2503 602.577 21.0955C602.208 21.9406 602.022 22.8524 602.031 23.7725L603.148 23.7322C604.719 20.8616 606.744 19.9732 610.438 19.9732C612.14 19.9732 615.356 19.9919 618.824 20.0121ZM618.137 44.465L616.793 44.9752C613.253 39.234 611.417 32.0245 611.417 25.4868L600.664 25.3253C600.664 32.4026 598.453 39.3185 595.359 45.0817L592.38 45.111L592.157 47.9596L631.947 47.8935L631.865 44.7182L628.983 44.7476C626.415 40.2102 625.06 35.1027 625.048 29.9065L616.417 29.778C616.407 32.1952 616.101 34.6023 615.505 36.9471C615.982 39.5724 616.87 42.1086 618.137 44.465ZM603.412 31.9144H608.025L607.284 36.0331L609.552 36.7452L606.286 43.4848L605.914 38.7128L603.822 38.3677L603.412 31.9144Z" fill="#FFC803"/>
<path fill-rule="evenodd" clip-rule="evenodd" d="M351.744 105.685L361.266 103.04L398.826 2L423.16 2L459.132 103.04L467.597 105.685V116.794H421.044V105.685L432.153 103.04L427.392 86.641H388.246L383.485 103.04L394.065 105.685V116.794H351.744V105.685ZM422.632 69.7128L408.878 23.6892L393.537 69.7128H422.632Z" fill="white"/>
<path d="M106.859 2L153.941 2V13.6381L142.832 17.8702V80.2929C142.832 80.2929 142.832 101.453 163.463 101.453C188.326 101.453 187.268 80.2929 187.268 80.2929V17.8702L175.63 13.6381V2L222.712 2V13.6381L211.074 17.8702V80.2929C211.074 91.9311 203.668 108.481 186.739 115.736C175.63 120.497 148.651 119.968 137.542 114.678C131.972 112.026 119.027 100.607 119.027 80.2929V17.8702L106.859 13.6381V2Z" fill="white"/>
<path fill-rule="evenodd" clip-rule="evenodd" d="M251.234 17.3412L239.596 14.1671V2L295.67 2C311.541 2.52901 344.868 9.9351 344.868 59.6617C344.868 104.098 311.541 116.442 295.67 117.323H239.596V106.214L251.234 101.982V17.3412ZM276.098 99.8662V18.9282H296.2C303.959 18.9282 319.476 26.9691 319.476 59.1327C319.476 91.2963 303.959 99.6899 296.2 99.8662H276.098Z" fill="white"/>
<path fill-rule="evenodd" clip-rule="evenodd" d="M0 14.1671L12.1671 16.8122L11.5401 101.453L0 106.12L0 117.323H49.7266V106.12L37.5595 101.315V69.8117C37.5595 69.8117 49.7266 69.1838 53.4296 73.9449L75.1189 117.323H102.627V106.12L92.5761 101.849C88.3441 93.6615 79.351 76.3259 77.2349 72.4815C75.1189 68.637 70.3579 66.252 68.2418 65.5401C75.8243 63.5823 92.5761 57.0167 92.5761 32.4352C92.5761 9.40609 74.5899 2 61.8938 2L0 2L0 14.1671ZM35.9719 53.2593V18.0185H51.842C64.5382 19.0864 68.2412 24.3191 68.2412 36.7068C68.2412 49.0944 57.3084 53.2593 51.842 53.2593H35.9719Z" fill="white"/>
<path d="M888.623 116.121H876.382L865.591 96.3601H856.975V108.816H863.095V116.121H841.996V108.816H848.036V73.4471H841.996V66.1426H865.269C871.765 66.1426 876.624 67.4497 879.845 70.0639C883.066 72.6269 884.677 76.2407 884.677 80.9053C884.677 84.2372 883.737 87.1077 881.858 89.5169C880.033 91.8749 877.483 93.5664 874.208 94.5916L882.181 108.816H888.623V116.121ZM875.174 81.136C875.174 78.3167 874.315 76.3432 872.597 75.2155C870.879 74.0366 867.954 73.4471 863.82 73.4471H856.975V89.5169H863.739C868.034 89.5169 871.014 88.7993 872.678 87.364C874.342 85.8775 875.174 83.8015 875.174 81.136Z" fill="white"/>
<path d="M834.282 116.121H794.42V108.816H800.46V73.4471H794.42V66.1426H833.719L835.329 80.5978L827.679 81.2129L826.068 73.4471H809.398V87.2871H832.43V94.5916H809.398V108.816H826.632L828.242 101.05L835.893 101.665L834.282 116.121Z" fill="white"/>
<path d="M789.531 82.4431L781.801 83.0582L780.19 73.4471H769.963V108.816H778.74V116.121H752.568V108.816H761.024V73.4471H750.716L749.105 83.0582L741.455 82.4431L743.066 66.1426H787.921L789.531 82.4431Z" fill="white"/>
<path d="M737.352 73.4471H731.313V116.121L726.159 116.198L697.168 81.5204H696.846V108.816H704.496V116.121H682.672V108.816H688.471V73.4471H681.867V66.1426H694.994L722.615 99.205H722.937V73.4471H715.287V66.1426H737.352V73.4471Z" fill="white"/>
<path d="M674.718 116.121H634.855V108.816H640.895V73.4471H634.855V66.1426H674.154L675.765 80.5978L668.114 81.2129L666.504 73.4471H649.834V87.2871H672.866V94.5916H649.834V108.816H667.067L668.678 101.05L676.328 101.665L674.718 116.121Z" fill="white"/>
<path d="M627 111.353C625.121 113.045 622.436 114.403 618.947 115.428C615.511 116.402 611.941 116.889 608.236 116.889C600.666 116.889 594.412 114.557 589.473 109.892C584.587 105.177 582.145 99.1279 582.145 91.7466C582.145 87.5945 583.057 83.4938 584.883 79.4443C586.708 75.3948 589.553 72.0373 593.419 69.3718C597.284 66.7063 602.223 65.3735 608.236 65.3735C612.639 65.3735 616.397 65.963 619.51 67.142C622.624 68.321 625.094 69.705 626.919 71.294L628.288 82.1354L620.96 82.8274L619.671 75.9074C616.45 73.9083 612.585 72.9087 608.075 72.9087C603.136 72.9087 599.163 74.549 596.157 77.8296C593.204 81.1102 591.728 85.5954 591.728 91.2852C591.728 97.2313 593.311 101.742 596.479 104.818C599.646 107.842 603.807 109.354 608.961 109.354C613.256 109.354 616.772 108.637 619.51 107.201L620.799 99.7431L628.127 100.435L627 111.353Z" fill="white"/>
<path fill-rule="evenodd" clip-rule="evenodd" d="M570.321 22.1023C568.719 23.1621 531.274 47.4312 531.274 47.4312L517.249 27.6368C517.249 27.6368 554.483 1.9547 556.002 0.930244C564.48 -4.75726 577.539 17.298 570.321 22.1023ZM565.611 10.1739C561.148 2.46104 554.742 6.01721 559.487 14.2364C563.88 21.7491 570.097 17.8632 565.669 10.1739H565.611ZM514.976 32.9004L523.455 49.2563L495.347 68.8034L484.937 54.3433L490.707 50.2455L486.351 45.6178L478.861 49.7862L472.503 40.8958L502.73 20.7364L508.394 29.3913L498.35 36.8333L501.541 42.5208L514.976 32.9004ZM483.713 60.8786L488.14 69.769L471.961 81.2853L463 69.51L469.441 64.5172L474.74 67.9085L483.713 60.8786ZM525.963 57.2636L554.553 114.103L548.289 117L527.435 81.8505L513.658 82.6395L491.649 116.611L485.573 114.727L510.584 66.3659L525.963 57.2636ZM524.114 116.682H516.201L515.024 89.5987H526.022L524.114 116.682Z" fill="#FFC803"/>
</svg>
