<svg width="25" height="24" viewBox="0 0 25 24" fill="none" xmlns="http://www.w3.org/2000/svg">
<path fill-rule="evenodd" clip-rule="evenodd" d="M16.6988 24C13.7311 24 9.50971 23.8505 6.69446 23.8505C1.42919 23.8505 0 20.7362 0 16.7764C0 12.8167 0.0776421 8.4371 0.0776421 6.93602C0.0776421 2.48742 2.04745 0.0172542 6.93027 0.0172542C8.73616 0.0172542 15.5284 0 17.8404 0C22.2832 0 24.4141 1.83465 24.4141 7.20632C24.4141 8.53199 24.3163 11.0137 24.3163 17.895C24.3163 22.2229 22.2717 24 16.6988 24ZM21.2998 8.61251L18.2459 6.43853L13.7541 11.3904L13.8922 6.99065L9.70525 6.92164L10.1941 8.52912L10.2919 13.4177C8.76779 13.1531 6.91014 9.33142 7.02804 7.0913L3.03954 7.14594C4.0115 15.028 9.83753 18.8555 13.5557 18.3149L13.6449 15.4047C13.9324 15.2667 14.3235 15.0539 14.7951 14.7721L17.4838 18.3005L21.9065 18.0618L17.6707 12.716C19.0928 11.551 20.319 10.1656 21.3027 8.61251H21.2998Z" fill="#0177FF"/>
</svg>
